<?xml version="1.0" encoding="UTF-8"?>
<svg width="226px" height="282px" viewBox="0 0 226 282" version="1.1" xmlns="http://www.w3.org/2000/svg" xmlns:xlink="http://www.w3.org/1999/xlink">
    <!-- Generator: Sketch 51.1 (57501) - http://www.bohemiancoding.com/sketch -->
    <title>Group 2168</title>
    <desc>Created with Sketch.</desc>
    <defs></defs>
    <g id="Networks" stroke="none" stroke-width="1" fill="none" fill-rule="evenodd" opacity="0.600000024">
        <g id="networks" transform="translate(-1111.000000, -412.000000)" fill="#FFFFFF">
            <g id="Group-2168" transform="translate(1020.000000, 412.000000)">
                <g transform="translate(91.000000, -71.000000)">
                    <path d="M225.116997,78.0063795 C224.890716,77.9624758 224.678208,78.1499566 224.64279,78.4216852 C224.606388,78.6946004 224.76085,78.9497167 224.987131,78.9936205 C225.213413,79.0375242 225.424937,78.8500434 225.461339,78.5783148 C225.496757,78.3053996 225.342295,78.0502833 225.116997,78.0063795" id="Fill-1"></path>
                    <path d="M90.273037,345.205218 C90.138231,344.983236 89.8794428,344.933379 89.6944535,345.09482 C89.5094642,345.257449 89.4681368,345.570835 89.6019588,345.792817 C89.7367649,346.017173 89.9965371,346.06703 90.1815264,345.904401 C90.3665157,345.741773 90.4078431,345.428387 90.273037,345.205218" id="Fill-51"></path>
                    <path d="M78.7024593,323.273466 C78.5990696,323.027866 78.3489651,322.929389 78.1451398,323.053969 C77.9413144,323.180921 77.8595873,323.481099 77.9639617,323.727886 C78.0673513,323.973486 78.3174559,324.070777 78.5212812,323.945011 C78.7251066,323.820431 78.805849,323.519067 78.7024593,323.273466" id="Fill-53"></path>
                    <path d="M68.8208563,298.653699 C68.8916891,298.917176 69.125831,299.060783 69.3432484,298.975331 C69.5606659,298.889879 69.6797044,298.607413 69.6088716,298.345123 C69.5380387,298.082833 69.3048807,297.939226 69.0874632,298.024678 C68.869062,298.11013 68.7500235,298.391409 68.8208563,298.653699" id="Fill-55"></path>
                    <path d="M65.0054465,272.0061 C64.7801416,272.050027 64.6246911,272.30528 64.6610941,272.578341 C64.6974971,272.851402 64.9090278,273.036609 65.1353166,272.993869 C65.3606214,272.951129 65.5150881,272.694689 65.479669,272.422815 C65.443266,272.149754 65.2307514,271.96336 65.0054465,272.0061" id="Fill-57"></path>
                    <path d="M62.5835031,245 C62.3551069,245 62.1690428,245.223278 62.1690428,245.5 C62.1690428,245.775534 62.3551069,246 62.5835031,246 C62.8128837,246 62.9979633,245.775534 62.9979633,245.5 C62.9979633,245.223278 62.8128837,245 62.5835031,245" id="Fill-59"></path>
                    <path d="M65.1353166,219.006098 C64.9090278,218.96337 64.6974971,219.149712 64.6610941,219.422696 C64.6246911,219.694493 64.7801416,219.95086 65.0054465,219.993588 C65.2317352,220.037503 65.443266,219.851162 65.479669,219.578178 C65.5150881,219.305194 65.3606214,219.050013 65.1353166,219.006098" id="Fill-61"></path>
                    <path d="M69.0868542,193.975331 C69.3041607,194.060783 69.5381832,193.917176 69.6089799,193.653699 C69.6797766,193.391409 69.5598155,193.11013 69.3425089,193.024678 C69.1252024,192.939226 68.8921632,193.082833 68.8203832,193.345123 C68.7505698,193.607413 68.8695476,193.889879 69.0868542,193.975331" id="Fill-63"></path>
                    <path d="M78.5208341,168.054763 C78.31716,167.928941 78.067241,168.027462 77.963928,168.273172 C77.8596311,168.518882 77.9412975,168.820382 78.1449717,168.945017 C78.3486458,169.07084 78.5985648,168.973505 78.7018778,168.726608 C78.8061747,168.480898 78.7254922,168.179399 78.5208341,168.054763" id="Fill-65"></path>
                    <path d="M89.6026999,146.205646 C89.4679394,146.428912 89.5092529,146.742434 89.6941797,146.903946 C89.8800901,147.066645 90.1387909,147.017954 90.2735514,146.793501 C90.4073282,146.570235 90.3669984,146.2579 90.181088,146.0952 C89.9961612,145.933689 89.7374604,145.98238 89.6026999,146.205646" id="Fill-67"></path>
                    <path d="M104.322236,125.853116 C104.484577,125.658457 104.484577,125.341543 104.322236,125.146884 C104.16088,124.951039 103.898183,124.951039 103.736827,125.146884 C103.574486,125.341543 103.574486,125.658457 103.736827,125.853116 C103.898183,126.048961 104.16088,126.048961 104.322236,125.853116" id="Fill-69"></path>
                    <path d="M120.851543,108.904302 C121.03658,108.741631 121.077919,108.429351 120.943077,108.206124 C120.809221,107.982897 120.549381,107.933027 120.364343,108.095698 C120.179305,108.258369 120.137967,108.570649 120.272809,108.793876 C120.406665,109.017103 120.666505,109.066973 120.851543,108.904302" id="Fill-71"></path>
                    <path d="M140.042591,95.2731722 C139.939224,95.0274621 139.689175,94.9289407 139.485394,95.0547632 C139.280629,95.1805858 139.199905,95.4808981 139.304256,95.7266082 C139.407623,95.9735053 139.656688,96.0708398 139.861453,95.9450172 C140.065234,95.8203817 140.145958,95.5200693 140.042591,95.2731722" id="Fill-73"></path>
                    <path d="M159.961211,84.3451576 C159.890371,84.0828414 159.657187,83.9392203 159.439746,84.0246808 C159.222305,84.1101412 159.10227,84.3914487 159.17311,84.6549518 C159.243951,84.916081 159.478118,85.0608891 159.695559,84.9754286 C159.913001,84.8899681 160.032052,84.6086607 159.961211,84.3451576" id="Fill-75"></path>
                    <path d="M181.883003,78.0063795 C181.657705,78.0502833 181.503243,78.3053996 181.538661,78.5783148 C181.575063,78.8500434 181.786587,79.0375242 182.012869,78.9936205 C182.23915,78.9497167 182.393612,78.6946004 182.35721,78.4216852 C182.321792,78.1499566 182.109284,77.9624758 181.883003,78.0063795" id="Fill-77"></path>
                    <path d="M202.671079,76 C202.442683,76 202.256619,76.2232779 202.256619,76.5 C202.256619,76.7767221 202.442683,77 202.671079,77 C202.899476,77 203.08554,76.7767221 203.08554,76.5 C203.08554,76.2232779 202.899476,76 202.671079,76" id="Fill-79"></path>
                    <path d="M82.9711926,350.79407 C83.1057862,351.0169 83.3648153,351.066673 83.5501989,350.905102 C83.7355825,350.742765 83.7762145,350.428811 83.6416209,350.205981 C83.5070274,349.982385 83.2479983,349.933377 83.0632495,350.095714 C82.877866,350.258051 82.8365991,350.570473 82.9711926,350.79407" id="Fill-157"></path>
                    <path d="M74.8100448,335.066897 C74.6119829,335.205462 74.5440578,335.510917 74.6583243,335.750534 C74.7725908,335.98862 75.0265164,336.0713 75.2245784,335.932735 C75.4226403,335.794936 75.4905654,335.489481 75.3762989,335.249864 C75.2613976,335.011012 75.0081068,334.929098 74.8100448,335.066897" id="Fill-159"></path>
                    <path d="M67.3887061,317.043069 C67.1792655,317.154868 67.0853346,317.450446 67.1786309,317.703142 C67.2712924,317.955072 67.5169091,318.069168 67.7257149,317.956603 C67.9345208,317.844039 68.0284517,317.548461 67.9357901,317.296531 C67.8424939,317.0446 67.5975119,316.93127 67.3887061,317.043069" id="Fill-161"></path>
                    <path d="M61.8824997,300.975207 C62.1002446,300.890198 62.2195917,300.608367 62.1484913,300.345682 C62.0780258,300.082997 61.8437754,299.939018 61.6266653,300.024793 C61.4089203,300.109802 61.2895732,300.391633 61.3606736,300.654318 C61.4311392,300.917003 61.6647548,301.060982 61.8824997,300.975207" id="Fill-163"></path>
                    <path d="M58.0335921,282.604309 C58.0812008,282.874761 58.3008352,283.04638 58.5249131,282.988918 C58.748991,282.932223 58.8918169,282.666368 58.8442083,282.396682 C58.7965996,282.125464 58.5763304,281.95308 58.3528873,282.011307 C58.1288094,282.068002 57.9859835,282.333091 58.0335921,282.604309" id="Fill-165"></path>
                    <path d="M56.3642662,264.447492 C56.3401509,264.173411 56.13644,263.974358 55.9086139,264.002685 C55.6814224,264.031777 55.5164229,264.277531 55.5399036,264.552378 C55.5640189,264.826459 55.7677298,265.026278 55.9955559,264.997186 C56.2227474,264.968859 56.3883815,264.722339 56.3642662,264.447492" id="Fill-167"></path>
                    <path d="M55.5376782,245.499617 C55.5376782,245.223755 55.3523453,245 55.1232179,245 C54.8947253,245 54.7087576,245.223755 54.7087576,245.499617 C54.7087576,245.775479 54.8947253,246 55.1232179,246 C55.3523453,246 55.5376782,245.775479 55.5376782,245.499617" id="Fill-169"></path>
                    <path d="M55.9955559,227.002814 C55.7677298,226.973721 55.5640189,227.17354 55.5399036,227.448387 C55.5164229,227.722468 55.6814224,227.968223 55.9086139,227.997315 C56.13644,228.025642 56.3401509,227.826589 56.3642662,227.552507 C56.3883815,227.277661 56.2227474,227.031906 55.9955559,227.002814" id="Fill-171"></path>
                    <path d="M58.0335921,208.396235 C57.9859835,208.66656 58.1288094,208.931524 58.3528873,208.988959 C58.5763304,209.046393 58.7965996,208.87409 58.8442083,208.603765 C58.8918169,208.334206 58.748991,208.068476 58.5249131,208.011041 C58.3008352,207.953607 58.0812008,208.12591 58.0335921,208.396235" id="Fill-173"></path>
                    <path d="M61.6265308,190.975509 C61.8441736,191.060478 62.0776796,190.917333 62.1487467,190.654773 C62.2191792,190.391447 62.1005226,190.10975 61.8822453,190.024781 C61.665237,189.939047 61.4310965,190.082958 61.360664,190.345518 C61.289597,190.608078 61.4088881,190.889776 61.6265308,190.975509" id="Fill-175"></path>
                    <path d="M67.7253469,172.043521 C67.516541,171.930935 67.271559,172.044287 67.1782628,172.297032 C67.0856012,172.54901 67.1795321,172.844645 67.388338,172.956465 C67.5971439,173.069051 67.8427605,172.955699 67.9354221,172.70372 C68.0287183,172.450976 67.9347874,172.155342 67.7253469,172.043521" id="Fill-177"></path>
                    <path d="M75.2245784,155.066899 C75.0265164,154.929096 74.7732256,155.011012 74.6583243,155.249871 C74.5440578,155.489495 74.6119829,155.794958 74.8100448,155.932761 C75.0081068,156.071329 75.2620324,155.988647 75.3762989,155.749789 C75.4905654,155.510931 75.4226403,155.205468 75.2245784,155.066899" id="Fill-179"></path>
                    <path d="M83.6418061,140.79403 C83.7763932,140.570445 83.7351283,140.258038 83.5503884,140.095709 C83.3650137,139.933381 83.105997,139.982386 82.9714099,140.20597 C82.8368228,140.429555 82.8774528,140.741962 83.0628275,140.904291 C83.2482022,141.066619 83.5072189,141.017614 83.6418061,140.79403" id="Fill-181"></path>
                    <path d="M93.561805,125.834533 C93.7148143,125.629373 93.7008467,125.313213 93.5306952,125.128722 C93.3611786,124.943466 93.0989676,124.960308 92.9453233,125.165467 C92.792314,125.370627 92.8062816,125.686787 92.9764331,125.871278 C93.1465846,126.056534 93.4081607,126.039692 93.561805,125.834533" id="Fill-183"></path>
                    <path d="M103.508604,112.165467 C103.355647,111.960308 103.093526,111.943466 102.923433,112.128722 C102.75334,112.313213 102.739377,112.629373 102.892334,112.834533 C103.045925,113.039692 103.308046,113.056534 103.478139,112.871278 C103.648232,112.686787 103.66156,112.370627 103.508604,112.165467" id="Fill-185"></path>
                    <path d="M116.798665,100.206149 C116.664071,99.9825521 116.405042,99.9335447 116.219659,100.095116 C116.034275,100.257453 115.993643,100.570641 116.128236,100.794238 C116.26283,101.017068 116.521859,101.066841 116.706608,100.904504 C116.891991,100.742167 116.933258,100.429745 116.798665,100.206149" id="Fill-187"></path>
                    <path d="M128.689882,90.0670779 C128.49182,90.2049046 128.423895,90.5111863 128.538161,90.750086 C128.652428,90.9889856 128.905719,91.070916 129.104415,90.9330892 C129.302477,90.7952625 129.370402,90.4889809 129.256136,90.2500812 C129.141235,90.0104158 128.887944,89.9292512 128.689882,90.0670779" id="Fill-189"></path>
                    <path d="M143.367194,82.296843 C143.274532,82.0442591 143.02955,81.9309791 142.82011,82.0434937 C142.611304,82.1552429 142.517373,82.4514549 142.610035,82.7032734 C142.703331,82.9550918 142.948313,83.0691372 143.157119,82.9566226 C143.366559,82.844108 143.46049,82.5486614 143.367194,82.296843" id="Fill-191"></path>
                    <path d="M158.037422,75.9755023 C158.255063,75.8905092 158.374354,75.6079643 158.303287,75.3453277 C158.232855,75.0826912 157.998716,74.9395045 157.781074,75.0244977 C157.563433,75.1102565 157.444777,75.3920357 157.515209,75.6546723 C157.586276,75.9173088 157.81978,76.0604955 158.037422,75.9755023" id="Fill-193"></path>
                    <path d="M68.9226211,344.522412 C69.1619056,344.993293 69.6721339,345.140777 70.0623517,344.852917 C70.4525696,344.564169 70.575525,343.94847 70.3355042,343.477588 C70.096956,343.006707 69.5867277,342.859223 69.1965098,343.147083 C68.806292,343.435831 68.6833365,344.05153 68.9226211,344.522412" id="Fill-305"></path>
                    <path d="M63.9173164,332.4544 C64.1249471,332.946657 64.6241445,333.141249 65.0320432,332.890678 C65.4399419,332.640107 65.6019233,332.03767 65.3942926,331.546302 C65.1866618,331.054045 64.6874645,330.858564 64.2795658,331.109135 C63.8716671,331.359706 63.7096857,331.962143 63.9173164,332.4544" id="Fill-307"></path>
                    <path d="M59.1703814,317.923981 C59.5938124,317.712574 59.7941137,317.128096 59.6188501,316.617344 C59.4443229,316.10748 58.9590341,315.864984 58.5363395,316.076391 C58.1129085,316.287798 57.9126073,316.872276 58.0878709,317.383028 C58.2631345,317.892892 58.7476868,318.1345 59.1703814,317.923981" id="Fill-309"></path>
                    <path d="M53.9206213,304.308697 C54.0619778,304.833633 54.5294851,305.121416 54.9645983,304.950878 C55.4004476,304.779452 55.6382506,304.216322 55.496894,303.691385 C55.3555375,303.16556 54.8880301,302.878666 54.452917,303.049204 C54.0170677,303.218853 53.7792647,303.78376 53.9206213,304.308697" id="Fill-311"></path>
                    <path d="M52.1989259,289.766809 C52.0921637,289.230305 51.6444987,288.898986 51.1997788,289.027783 C50.755059,289.15658 50.4804224,289.696637 50.5871846,290.233142 C50.6939468,290.770535 51.1416118,291.100965 51.5863317,290.972169 C52.0317878,290.843372 52.3056881,290.303314 52.1989259,289.766809" id="Fill-313"></path>
                    <path d="M49.035884,275.987368 C49.4879066,275.901191 49.7963715,275.388569 49.7249608,274.843964 C49.6528138,274.298471 49.2287666,273.926221 48.7760078,274.012398 C48.3247214,274.098575 48.0162565,274.611197 48.0876672,275.155802 C48.1598141,275.702183 48.5838614,276.074434 49.035884,275.987368" id="Fill-315"></path>
                    <path d="M47.3132805,261.99684 C47.7698817,261.953306 48.1108597,261.471766 48.0747735,260.920928 C48.0386873,260.370978 47.6395294,259.959626 47.1829282,260.00316 C46.7270634,260.046694 46.3860853,260.528234 46.4221716,261.078184 C46.4575214,261.629022 46.8566792,262.040374 47.3132805,261.99684" id="Fill-317"></path>
                    <path d="M47.2484725,244.999556 C47.2484725,244.447801 46.8772811,244 46.4199202,244 C45.9618228,244 45.5906314,244.447801 45.5906314,244.999556 C45.5906314,245.552199 45.9618228,246 46.4199202,246 C46.8772811,246 47.2484725,245.552199 47.2484725,244.999556" id="Fill-319"></path>
                    <path d="M47.3132805,230.00316 C46.8566792,229.959626 46.4575214,230.370978 46.4221716,230.921816 C46.3860853,231.471766 46.7270634,231.953306 47.1829282,231.99684 C47.6395294,232.040374 48.0386873,231.629022 48.0747735,231.078184 C48.1108597,230.527345 47.7698817,230.046694 47.3132805,230.00316" id="Fill-321"></path>
                    <path d="M48.0876665,215.843688 C48.0162558,216.389003 48.3247208,216.900568 48.7767436,216.987605 C49.2287664,217.073754 49.6528138,216.701626 49.7249607,216.157199 C49.7963715,215.610997 49.4879065,215.099431 49.0358837,215.012394 C48.5838609,214.926245 48.1598135,215.298373 48.0876665,215.843688" id="Fill-323"></path>
                    <path d="M51.5863728,200.028119 C51.1416535,199.898417 50.6939891,200.22978 50.5872271,200.767245 C50.480465,201.303822 50.7543649,201.843952 51.1990842,201.971878 C51.6445397,202.10158 52.0922041,201.770217 52.1989661,201.233641 C52.3057282,200.697064 52.031092,200.156933 51.5863728,200.028119" id="Fill-325"></path>
                    <path d="M55.496894,188.308699 C55.6382506,187.782876 55.4004476,187.218859 54.9645983,187.04921 C54.5294851,186.878673 54.0619778,187.165566 53.9206213,187.690501 C53.7792647,188.216325 54.0170677,188.779453 54.452917,188.950878 C54.8880301,189.121416 55.3555375,188.833634 55.496894,188.308699" id="Fill-327"></path>
                    <path d="M58.5361724,174.923623 C58.9588119,175.134991 59.4440374,174.89254 59.6192781,174.382771 C59.7937826,173.872114 59.5935074,173.287744 59.1701316,173.076377 C58.7474922,172.865009 58.263003,173.10746 58.0877622,173.617229 C57.9125215,174.127886 58.1135329,174.712256 58.5361724,174.923623" id="Fill-329"></path>
                    <path d="M65.032038,159.109097 C64.6241346,158.858613 64.1256679,159.054026 63.9172984,159.54611 C63.7096653,160.038194 63.8716486,160.64042 64.2802883,160.890903 C64.6874554,161.141387 65.1866584,160.945974 65.3942915,160.45389 C65.6019247,159.961806 65.4399414,159.35958 65.032038,159.109097" id="Fill-331"></path>
                    <path d="M70.0621951,146.147694 C69.6720257,145.859002 69.1618607,146.006457 68.9226059,146.477246 C68.683351,146.948036 68.8062912,147.564503 69.1964607,147.852306 C69.5866301,148.140998 70.0967951,147.993543 70.3360499,147.522754 C70.5753048,147.051964 70.4523646,146.436385 70.0621951,146.147694" id="Fill-333"></path>
                    <path d="M76.9313543,135.587483 C77.2001443,135.140619 77.1184027,134.515187 76.7479879,134.190922 C76.3775731,133.866656 75.8591396,133.965268 75.5903495,134.412133 C75.320823,134.858997 75.4033011,135.484429 75.7737159,135.808694 C76.1441307,136.133847 76.6625642,136.034347 76.9313543,135.587483" id="Fill-335"></path>
                    <path d="M85.0880955,122.239743 C84.7398502,121.880845 84.217114,121.930593 83.9196698,122.350789 C83.6222255,122.770984 83.6634554,123.401722 84.0117008,123.76062 C84.3599462,124.11863 84.8826823,124.06977 85.1801266,123.649575 C85.4775708,123.229379 85.4363409,122.597754 85.0880955,122.239743" id="Fill-337"></path>
                    <path d="M93.4250094,111.292602 C93.1017258,110.902466 92.5766661,110.902466 92.252646,111.292602 C91.9293624,111.682737 91.9293624,112.316374 92.252646,112.707398 C92.5766661,113.097534 93.1017258,113.097534 93.4250094,112.707398 C93.7490294,112.316374 93.7490294,111.682737 93.4250094,111.292602" id="Fill-339"></path>
                    <path d="M102.495353,103.760282 C102.843688,103.401422 102.884928,102.770753 102.587408,102.350602 C102.289887,101.930452 101.767017,101.880709 101.418683,102.240457 C101.070348,102.598429 101.029844,103.229099 101.327365,103.649249 C101.624148,104.069399 102.147019,104.119142 102.495353,103.760282" id="Fill-341"></path>
                    <path d="M112.57465,92.4122118 C112.305912,91.9652618 111.787578,91.8666307 111.417235,92.1909582 C111.046891,92.5152858 110.964429,93.1408381 111.233904,93.5877882 C111.502642,94.0347382 112.020976,94.1333693 112.391319,93.8090418 C112.761663,93.4847142 112.844125,92.8591619 112.57465,92.4122118" id="Fill-343"></path>
                    <path d="M122.284191,85.8523061 C122.674361,85.5636146 122.797301,84.9480355 122.558046,84.4772463 C122.318791,84.0064571 121.808626,83.8590024 121.418457,84.1476939 C121.028287,84.4363854 120.905347,85.0519645 121.144602,85.5227537 C121.383857,85.9935429 121.894022,86.1409976 122.284191,85.8523061" id="Fill-345"></path>
                    <path d="M131.888803,78.4538899 C132.096434,78.9459741 132.595631,79.1413866 133.00353,78.8909033 C133.411429,78.6395318 133.57341,78.0381943 133.365779,77.5461101 C133.158149,77.0540259 132.658951,76.8586134 132.251053,77.1090967 C131.843154,77.35958 131.681172,77.9618057 131.888803,78.4538899" id="Fill-347"></path>
                    <path d="M143.086071,71.0763908 C142.663431,71.2877978 142.46242,71.872276 142.63766,72.3830282 C142.812901,72.8928922 143.29739,73.1345002 143.72003,72.9239814 C144.143406,72.7125744 144.343681,72.1280962 144.169176,71.617344 C143.993936,71.1074801 143.50871,70.8649838 143.086071,71.0763908" id="Fill-349"></path>
                    <path d="M66.1200242,350.696476 C65.7521705,349.997104 64.9839317,349.789808 64.4042076,350.233583 C63.8244835,350.677357 63.6526516,351.604151 64.0205053,352.303524 C64.388359,353.002896 65.1565978,353.210192 65.7363219,352.766417 C66.3160461,352.321637 66.487878,351.394843 66.1200242,350.696476" id="Fill-491"></path>
                    <path d="M60.6957659,342.814497 C61.2972933,342.415988 61.5167132,341.503242 61.1863319,340.777675 C60.8551164,340.052107 60.0992442,339.786434 59.4977168,340.185949 C58.8961894,340.584458 58.6767695,341.496198 59.0071507,342.222772 C59.3383663,342.948339 60.0942385,343.213006 60.6957659,342.814497" id="Fill-493"></path>
                    <path d="M56.2477788,329.86146 C55.9550206,329.11173 55.2152016,328.790704 54.5938204,329.142926 C53.9724391,329.496155 53.7063712,330.388788 53.9982953,331.139525 C54.2902193,331.888249 55.0317065,332.209275 55.6522537,331.857053 C56.2736349,331.50483 56.5405369,330.611191 56.2477788,329.86146" id="Fill-495"></path>
                    <path d="M51.436323,319.894325 C52.0743525,319.588406 52.3871121,318.717944 52.1344024,317.947108 C51.8816926,317.177277 51.1594265,316.800916 50.520563,317.105829 C49.8825335,317.409736 49.5706079,318.281204 49.8224836,319.051034 C50.0760274,319.82187 50.7974595,320.199238 51.436323,319.894325" id="Fill-497"></path>
                    <path d="M45.6517101,306.963561 C45.8636042,307.750355 46.5651905,308.181985 47.2183916,307.926428 C47.8715927,307.669865 48.2286426,306.823708 48.0159143,306.036914 C47.8048544,305.249113 47.1032681,304.817483 46.450067,305.074047 C45.7968659,305.329604 45.439816,306.17576 45.6517101,306.963561" id="Fill-499"></path>
                    <path d="M44.6564617,295.952785 C45.3212662,295.746533 45.7216503,294.928569 45.5514871,294.127708 C45.3804897,293.325841 44.7031732,292.841903 44.0383686,293.047149 C43.37273,293.253401 42.9723458,294.071366 43.1433432,294.873233 C43.3143406,295.6751 43.9916572,296.158031 44.6564617,295.952785" id="Fill-501"></path>
                    <path d="M42.9221351,283.973219 C43.5969545,283.818249 44.0390487,283.032331 43.9105911,282.219243 C43.7812994,281.405149 43.1306701,280.871811 42.4558508,281.026781 C41.7818656,281.182757 41.3397713,281.967669 41.4682289,282.780757 C41.5966865,283.594851 42.2473158,284.128189 42.9221351,283.973219" id="Fill-503"></path>
                    <path d="M40.0466898,269.012141 C39.3661465,269.116807 38.883261,269.866573 38.9691629,270.687793 C39.0558988,271.509013 39.6772282,272.091717 40.3586055,271.988058 C41.0391488,271.884399 41.5220343,271.133627 41.4361324,270.312407 C41.3493965,269.491187 40.7272331,268.907476 40.0466898,269.012141" id="Fill-505"></path>
                    <path d="M39.4517731,259.996953 C40.1366673,259.94462 40.6572203,259.232095 40.6146751,258.405846 C40.5712957,257.579598 39.9806683,256.951609 39.2957741,257.002935 C38.6100456,257.055267 38.0894926,257.766787 38.1328721,258.594042 C38.1762515,259.421296 38.7660447,260.049285 39.4517731,259.996953" id="Fill-507"></path>
                    <path d="M39.3737271,244 C38.6869469,244 38.1303462,244.671477 38.1303462,245.5 C38.1303462,246.328523 38.6869469,247 39.3737271,247 C40.0605073,247 40.6171079,246.328523 40.6171079,245.5 C40.6171079,244.671477 40.0605073,244 39.3737271,244" id="Fill-509"></path>
                    <path d="M39.2956811,234.997065 C39.9814095,235.048393 40.5712027,234.42038 40.6145821,233.594101 C40.6579615,232.767822 40.1374086,232.055269 39.4516801,232.002935 C38.7667859,231.951607 38.1761585,232.57962 38.1327791,233.405899 C38.0902339,234.232178 38.6107868,234.944731 39.2956811,234.997065" id="Fill-511"></path>
                    <path d="M40.3583194,220.011959 C39.677597,219.908295 39.05527,220.490024 38.9693455,221.312296 C38.8825867,222.133562 39.3655993,222.884376 40.0463217,222.98804 C40.7278782,223.091705 41.3493711,222.509975 41.4361298,221.68871 C41.5220543,220.866438 41.0390418,220.115624 40.3583194,220.011959" id="Fill-513"></path>
                    <path d="M41.4682276,208.219242 C41.33977,209.033336 41.7818645,209.818248 42.4566842,209.973218 C43.1306697,210.128187 43.7812993,209.59485 43.9105911,208.781762 C44.0390488,207.967668 43.5969543,207.182757 42.9221346,207.026781 C42.248149,206.871811 41.5966853,207.405148 41.4682276,208.219242" id="Fill-515"></path>
                    <path d="M44.6564617,195.04762 C43.9916572,194.841331 43.3143406,195.32435 43.1433432,196.127369 C42.9723458,196.929381 43.37273,197.746488 44.0383686,197.952777 C44.7031732,198.15806 45.3804897,197.675041 45.5514871,196.873029 C45.7216503,196.071016 45.3212662,195.25391 44.6564617,195.04762" id="Fill-517"></path>
                    <path d="M47.2181075,183.073687 C46.5650204,182.818052 45.8635565,183.248807 45.6516994,184.036845 C45.4398423,184.823877 45.7968299,185.670289 46.4499169,185.925924 C47.103004,186.182564 47.8044679,185.750804 48.016325,184.963772 C48.2281822,184.175733 47.8711946,183.329321 47.2181075,183.073687" id="Fill-519"></path>
                    <path d="M50.5209071,174.894307 C51.1597707,175.199233 51.8812028,174.82185 52.1347465,174.051987 C52.3866222,173.282124 52.0746967,172.410619 51.4366672,172.105693 C50.7978036,171.800767 50.0755375,172.17815 49.8228278,172.948013 C49.5701181,173.717876 49.8828776,174.589381 50.5209071,174.894307" id="Fill-521"></path>
                    <path d="M56.2477788,162.138534 C56.5405369,161.388798 56.2736349,160.496159 55.6522537,160.142927 C55.0317065,159.790702 54.2902193,160.11173 53.9982953,160.861466 C53.7063712,161.611202 53.9724391,162.503841 54.5938204,162.857073 C55.2152016,163.209298 55.9550206,162.88827 56.2477788,162.138534" id="Fill-523"></path>
                    <path d="M60.6957659,149.186165 C60.0942385,148.78663 59.3383663,149.051309 59.0071507,149.777919 C58.6767695,150.503522 58.8961894,151.415307 59.4977168,151.813835 C60.0992442,152.21337 60.8551164,151.948691 61.1863319,151.222081 C61.5167132,150.496478 61.2972933,149.584693 60.6957659,149.186165" id="Fill-525"></path>
                    <path d="M65.7363219,139.233583 C65.1565978,138.789808 64.388359,138.997104 64.0205053,139.696476 C63.6526516,140.395849 63.8244835,141.322643 64.4042076,141.766417 C64.9839317,142.210192 65.7521705,142.002896 66.1200242,141.303524 C66.487878,140.604151 66.3160461,139.677357 65.7363219,139.233583" id="Fill-527"></path>
                    <path d="M71.6035118,128.286123 C71.0478108,127.800056 70.2701632,127.947989 69.8663204,128.618219 C69.463312,129.288448 69.5868011,130.226367 70.1416677,130.713441 C70.6973687,131.200515 71.4750164,131.051575 71.8788592,130.381345 C72.2818675,129.711116 72.1592128,128.773197 71.6035118,128.286123" id="Fill-529"></path>
                    <path d="M75.7170165,118.543814 C75.2797918,119.181971 75.3532188,120.127127 75.8822273,120.655569 C76.4120703,121.184011 77.1955702,121.094428 77.6336293,120.455264 C78.070854,119.818114 77.9965926,118.871951 77.4675841,118.344516 C76.9385756,117.816073 76.1550756,117.905657 75.7170165,118.543814" id="Fill-531"></path>
                    <path d="M83.229014,109.472951 C82.7592711,110.076908 82.7834674,111.026126 83.2840815,111.593846 C83.7846956,112.160559 84.5714941,112.130361 85.0412371,111.527411 C85.5118143,110.922447 85.487618,109.974235 84.9861695,109.406516 C84.4855554,108.839803 83.6987569,108.868994 83.229014,109.472951" id="Fill-533"></path>
                    <path d="M91.6181733,102.59345 C92.1187689,102.02669 92.1429643,101.077391 91.6732388,100.473383 C91.202679,99.8693753 90.416744,99.839175 89.9153141,100.406942 C89.4147185,100.973703 89.390523,101.923002 89.8610829,102.527009 C90.3308084,103.131017 91.1175777,103.160211 91.6181733,102.59345" id="Fill-535"></path>
                    <path d="M100.014207,91.5439445 C99.5761352,90.9058437 98.792613,90.816268 98.2635896,91.3436573 C97.7345661,91.8720531 97.6603026,92.8181332 98.0975396,93.456234 C98.5356111,94.0943348 99.3191332,94.1839105 99.8481567,93.6555147 C100.378015,93.1281254 100.451444,92.1820453 100.014207,91.5439445" id="Fill-537"></path>
                    <path d="M105.78549,84.2866704 C105.229789,84.7728201 105.107135,85.7119042 105.510143,86.3812407 C105.913986,87.0515838 106.691633,87.2005489 107.247334,86.7133927 C107.802201,86.2262365 107.92569,85.2881589 107.522682,84.6178158 C107.118839,83.9484793 106.341191,83.7995142 105.78549,84.2866704" id="Fill-539"></path>
                    <path d="M116.300477,79.7664174 C116.880201,79.322643 117.052033,78.3958489 116.684179,77.6964765 C116.316325,76.9971041 115.548087,76.7898081 114.968362,77.2335826 C114.388638,77.677357 114.216806,78.6041511 114.58466,79.3035235 C114.952514,80.0028959 115.720753,80.2101919 116.300477,79.7664174" id="Fill-541"></path>
                    <path d="M124.52265,73.8144692 C125.124177,73.4159012 125.343597,72.5030195 125.013216,71.7773439 C124.682,71.0516683 123.926128,70.7869627 123.324601,71.1855308 C122.723073,71.5851052 122.503653,72.4969805 122.834035,73.2226561 C123.16525,73.9483317 123.921122,74.2130373 124.52265,73.8144692" id="Fill-543"></path>
                    <path d="M54.0463062,350.249723 C54.3899027,350.967078 55.1501683,351.21276 55.7448545,350.799226 C56.3395408,350.384754 56.5432111,349.467665 56.1996146,348.749373 C55.8567955,348.032956 55.0965299,347.787273 54.5010663,348.200807 C53.9071574,348.615279 53.703487,349.532368 54.0463062,350.249723" id="Fill-719"></path>
                    <path d="M51.2573303,339.819611 C50.9456377,339.081653 50.1971091,338.78722 49.5853832,339.164169 C48.9736573,339.540181 48.7303661,340.443171 49.0420587,341.181129 C49.3537513,341.919087 50.1022799,342.212583 50.7140058,341.835633 C51.3257317,341.460559 51.5690229,340.557569 51.2573303,339.819611" id="Fill-721"></path>
                    <path d="M47.1408353,329.890407 C46.8618151,329.132808 46.1265696,328.793388 45.4993571,329.129995 C44.8721445,329.467539 44.5900154,330.353593 44.8698129,331.110255 C45.1488331,331.865979 45.8833013,332.207274 46.5105139,331.86973 C47.1377264,331.533123 47.4198555,330.647069 47.1408353,329.890407" id="Fill-723"></path>
                    <path d="M43.1349424,320.900158 C43.7761884,320.603849 44.0956454,319.736488 43.8500288,318.962897 C43.6044122,318.189305 42.8846622,317.802978 42.2441935,318.100225 C41.6029476,318.397472 41.2827133,319.264832 41.5291072,320.037486 C41.7747238,320.811077 42.4936965,321.196467 43.1349424,320.900158" id="Fill-725"></path>
                    <path d="M40.5866121,310.926184 C41.2395071,310.671108 41.5970448,309.824294 41.3848539,309.035621 C41.1726631,308.248825 40.4715782,307.818384 39.8186832,308.07346 C39.1657882,308.329474 38.8082505,309.17535 39.0204414,309.964023 C39.2326322,310.75082 39.9337171,311.182198 40.5866121,310.926184" id="Fill-727"></path>
                    <path d="M37.2083887,300.948366 C37.8722198,300.733666 38.2655435,299.912365 38.0875373,299.111691 C37.9095311,298.311016 37.2278217,297.83755 36.564768,298.051313 C35.9017143,298.266014 35.5083906,299.088252 35.6863968,299.887989 C35.8636257,300.688663 36.545335,301.163067 37.2083887,300.948366" id="Fill-729"></path>
                    <path d="M35.4875343,290.966833 C36.1590118,290.793384 36.5880114,289.998334 36.4450115,289.188282 C36.3020117,288.377293 35.6421917,287.860698 34.9707142,288.033209 C34.2992366,288.20572 33.8702371,289.00077 34.0132369,289.811759 C34.1562368,290.621811 34.8160567,291.139344 35.4875343,290.966833" id="Fill-731"></path>
                    <path d="M33.7659177,278.98113 C34.4437711,278.851715 34.9070746,278.083663 34.7990223,277.265909 C34.6917473,276.447217 34.0550937,275.889231 33.3772403,276.018646 C32.6986095,276.148061 32.2360833,276.91705 32.3433583,277.734805 C32.4506333,278.552559 33.0872869,279.111483 33.7659177,278.98113" id="Fill-733"></path>
                    <path d="M32.8725101,268.991555 C33.555063,268.905274 34.0510411,268.167194 33.9787434,267.342832 C33.907223,266.519408 33.295413,265.922004 32.6128601,266.008285 C31.9295297,266.094567 31.434329,266.832647 31.5058493,267.657009 C31.5773697,268.480432 32.1899571,269.078774 32.8725101,268.991555" id="Fill-735"></path>
                    <path d="M31.9783427,257.997928 C32.6638811,257.954782 33.1908596,257.248496 33.1551059,256.421213 C33.1185749,255.593929 32.5340796,254.958928 31.8485412,255.002075 C31.1630028,255.045221 30.6360243,255.750569 30.671778,256.577852 C30.708309,257.405136 31.2928043,258.041074 31.9783427,257.997928" id="Fill-737"></path>
                    <path d="M31.9130533,247 C32.5994586,247 33.1568228,246.32854 33.1568228,245.499531 C33.1568228,244.672398 32.5994586,244 31.9130533,244 C31.226648,244 30.6700611,244.672398 30.6700611,245.499531 C30.6700611,246.32854 31.226648,247 31.9130533,247" id="Fill-739"></path>
                    <path d="M30.6717809,235.421216 C30.6360161,236.248451 31.1623809,236.954696 31.8481323,236.99784 C32.5346612,237.041922 33.1193382,236.40602 33.155103,235.577846 C33.1908678,234.751549 32.664503,234.045304 31.9787516,234.00216 C31.2930002,233.958079 30.7075457,234.59398 30.6717809,235.421216" id="Fill-741"></path>
                    <path d="M31.5058499,224.342992 C31.4343258,225.166415 31.9295528,225.904496 32.6121419,225.991715 C33.2955085,226.077996 33.907351,225.480592 33.9788751,224.65623 C34.0503993,223.832806 33.5551723,223.094726 32.8725831,223.008445 C32.1892165,222.921226 31.5773741,223.519568 31.5058499,224.342992" id="Fill-743"></path>
                    <path d="M32.3433583,213.265608 C32.2360833,214.084105 32.6986095,214.851974 33.3772403,214.981358 C34.0550937,215.110743 34.6917473,214.55289 34.7990223,213.734392 C34.9070746,212.916832 34.4437711,212.148964 33.7659177,212.018642 C33.0880642,211.889257 32.4506333,212.44711 32.3433583,213.265608" id="Fill-745"></path>
                    <path d="M34.9707142,203.966832 C35.6421917,204.139345 36.3020117,203.621805 36.4450115,202.811743 C36.5880114,202.00168 36.1590118,201.205681 35.4875343,201.033168 C34.8160567,200.860655 34.1562368,201.378195 34.0132369,202.188257 C33.8702371,202.99832 34.2992366,203.794319 34.9707142,203.966832" id="Fill-747"></path>
                    <path d="M37.2083887,191.051573 C36.545335,190.836864 35.8636257,191.312225 35.6863968,192.111995 C35.5083906,192.911765 35.9017143,193.734037 36.564768,193.948747 C37.2278217,194.162519 37.9095311,193.688095 38.0875373,192.888325 C38.2655435,192.088555 37.8722198,191.266283 37.2083887,191.051573" id="Fill-749"></path>
                    <path d="M40.5866121,180.0738 C39.9337171,179.817816 39.2326322,180.249145 39.0204414,181.03679 C38.8082505,181.824435 39.1657882,182.670215 39.8186832,182.9262 C40.4715782,183.182184 41.1726631,182.750855 41.3848539,181.96321 C41.5970448,181.175565 41.2395071,180.329785 40.5866121,180.0738" id="Fill-751"></path>
                    <path d="M43.8500288,172.037486 C44.0956454,171.263894 43.7761884,170.396534 43.1349424,170.100225 C42.4936965,169.802978 41.7755011,170.189305 41.5291072,170.962897 C41.2827133,171.735551 41.6029476,172.603849 42.2441935,172.900158 C42.8846622,173.196467 43.6044122,172.811077 43.8500288,172.037486" id="Fill-753"></path>
                    <path d="M44.8694805,160.890153 C44.590423,161.64672 44.8718125,162.532662 45.4998863,162.870164 C46.1271828,163.206728 46.8617494,162.866414 47.1408069,162.109847 C47.4198645,161.35328 47.1376976,160.467338 46.5111784,160.129836 C45.8838819,159.793272 45.1485381,160.133586 44.8694805,160.890153" id="Fill-755"></path>
                    <path d="M49.0420587,150.819222 C48.7303661,151.5572 48.9736573,152.460216 49.5853832,152.836239 C50.1971091,153.212261 50.9456377,152.918757 51.2573303,152.180778 C51.5690229,151.4428 51.3257317,150.539784 50.7140058,150.163761 C50.1022799,149.787739 49.3537513,150.081243 49.0420587,150.819222" id="Fill-757"></path>
                    <path d="M55.7448545,140.201017 C55.1501683,139.787473 54.3899027,140.032223 54.0463062,140.749597 C53.703487,141.467908 53.9071574,142.384083 54.5010663,142.798566 C55.0965299,143.213049 55.8567955,142.96736 56.1996146,142.249986 C56.5432111,141.532613 56.3395408,140.614562 55.7448545,140.201017" id="Fill-759"></path>
                    <path d="M58.2252155,131.683083 C57.8513436,132.378072 58.0145725,133.3066 58.5905374,133.757734 C59.1665022,134.208867 59.9367872,134.011907 60.3106591,133.316917 C60.684531,132.621928 60.5205248,131.6934 59.94456,131.242266 C59.3693724,130.791133 58.5990874,130.988093 58.2252155,131.683083" id="Fill-761"></path>
                    <path d="M64.9722194,122.286547 C64.4163721,121.799799 63.6389632,121.947981 63.235488,122.618548 C62.8320128,123.288178 62.9548434,124.226035 63.5106907,124.713721 C64.0657607,125.200468 64.8431695,125.051349 65.2474222,124.381719 C65.6508974,123.712089 65.5272894,122.773295 64.9722194,122.286547" id="Fill-763"></path>
                    <path d="M69.0775663,114.555687 C68.6453705,115.199946 68.7277675,116.144297 69.2610163,116.665706 C69.7950424,117.187115 70.5778143,117.087709 71.0100101,116.44345 C71.4422059,115.800129 71.3598088,114.855779 70.8265601,114.33437 C70.292534,113.812961 69.5097621,113.912366 69.0775663,114.555687" id="Fill-765"></path>
                    <path d="M75.0139799,108.614762 C75.5247597,109.169094 76.3107541,109.119382 76.7702227,108.503145 C77.2296913,107.887845 77.1884869,106.939571 76.6784845,106.385238 C76.1677047,105.830906 75.3817102,105.880618 74.9222416,106.496855 C74.462773,107.112155 74.5039775,108.060429 75.0139799,108.614762" id="Fill-767"></path>
                    <path d="M83.3565635,100.560375 C83.842449,99.9742087 83.842449,99.0250879 83.3565635,98.4389215 C82.8706781,97.8536928 82.0839324,97.8536928 81.5980469,98.4389215 C81.1129389,99.0250879 81.1129389,99.9742087 81.5980469,100.560375 C82.0839324,101.146542 82.8706781,101.146542 83.3565635,100.560375" id="Fill-769"></path>
                    <path d="M87.4478014,90.3852261 C86.9377829,90.9395411 86.8965772,91.8877855 87.3560603,92.5040037 C87.8155434,93.119284 88.6015627,93.1689941 89.1115811,92.6146791 C89.622377,92.0603642 89.6635828,91.1121197 89.2040997,90.4968395 C88.7438392,89.8806213 87.9585973,89.8309112 87.4478014,90.3852261" id="Fill-771"></path>
                    <path d="M94.9575655,83.3343613 C94.4243034,83.8557572 94.3419043,84.800084 94.7741109,85.4443268 C95.2063176,86.0876318 95.9891091,86.1870346 96.5223713,85.6656387 C97.0564108,85.1442428 97.1388099,84.199916 96.7066032,83.5556732 C96.2743966,82.9123682 95.491605,82.8129654 94.9575655,83.3343613" id="Fill-773"></path>
                    <path d="M103.102566,79.7137206 C103.657636,79.226035 103.781244,78.2881781 103.377768,77.6185483 C102.973516,76.9479806 102.196107,76.7997992 101.641037,77.286547 C101.08519,77.7732947 100.962359,78.7120894 101.365834,79.3817193 C101.769309,80.0513491 102.547496,80.2004683 103.102566,79.7137206" id="Fill-775"></path>
                    <path d="M110.509135,72.7577867 C111.085226,72.306752 111.248491,71.3774893 110.874537,70.6835898 C110.500583,69.9887526 109.730907,69.7908975 109.154816,70.2419322 C108.578725,70.6929668 108.415461,71.6222295 108.789414,72.3170667 C109.163368,73.0119039 109.933044,73.2088214 110.509135,72.7577867" id="Fill-777"></path>
                    <path d="M44.5871403,347.179784 C43.9821819,347.572043 43.7562851,348.481463 44.0814395,349.21127 C44.406594,349.940045 45.160439,350.212562 45.7645417,349.821335 C46.3695002,349.428045 46.5962526,348.518624 46.2710982,347.789849 C45.945088,347.060042 45.1920987,346.786493 44.5871403,347.179784" id="Fill-987"></path>
                    <path d="M42.9802052,339.849331 C42.6824745,339.102882 41.9398588,338.790055 41.3212976,339.148309 C40.7027364,339.508628 40.4426498,340.40478 40.7403805,341.151229 C41.0381112,341.896645 41.7815825,342.210504 42.4001437,341.851218 C43.0178493,341.491931 43.2787915,340.59578 42.9802052,339.849331" id="Fill-989"></path>
                    <path d="M39.687948,329.910722 C39.4184199,329.148819 38.6876992,328.795743 38.0562333,329.120945 C37.4247674,329.44718 37.1321369,330.327807 37.401665,331.089709 C37.6720488,331.851612 38.4019138,332.204688 39.0333797,331.878454 C39.6648456,331.554284 39.9574761,330.671592 39.687948,329.910722" id="Fill-991"></path>
                    <path d="M35.6660605,322.904418 C36.308586,322.613315 36.6336987,321.749296 36.3932864,320.973021 C36.1511629,320.197778 35.4350594,319.805511 34.7925339,320.095582 C34.1500085,320.387717 33.8240402,321.250704 34.0653081,322.026979 C34.3065759,322.802222 35.0235351,323.194489 35.6660605,322.904418" id="Fill-993"></path>
                    <path d="M33.1264583,313.926226 C33.7791645,313.67029 34.1367414,312.82508 33.9245905,312.036631 C33.7124396,311.249214 33.0109729,310.817838 32.3582668,311.073774 C31.7055606,311.32971 31.3479837,312.175952 31.5601346,312.963369 C31.7722855,313.750786 32.4737521,314.182162 33.1264583,313.926226" id="Fill-995"></path>
                    <path d="M30.5863355,304.945352 C31.2478048,304.725503 31.6363004,303.898748 31.4540326,303.100893 C31.2709092,302.302006 30.5863355,301.83444 29.9248661,302.054289 C29.2633968,302.27517 28.8749012,303.100893 29.057169,303.898748 C29.2394367,304.697635 29.9248661,305.166233 30.5863355,304.945352" id="Fill-997"></path>
                    <path d="M29.8098486,294.166053 C29.6566796,293.358795 28.9900948,292.854001 28.320943,293.03775 C27.6517912,293.222532 27.2333575,294.02566 27.3856708,294.832918 C27.5388398,295.641208 28.2054245,296.146002 28.8745763,295.962252 C29.5437281,295.778503 29.9621619,294.97331 29.8098486,294.166053" id="Fill-999"></path>
                    <path d="M28.1631777,284.231934 C28.0399547,283.417357 27.3938896,282.877402 26.7178745,283.024006 C26.0418593,283.172674 25.5943202,283.952149 25.7166875,284.768792 C25.8390548,285.583369 26.4868313,286.123324 27.1619907,285.975688 C27.8371501,285.828052 28.285545,285.047544 28.1631777,284.231934" id="Fill-1001"></path>
                    <path d="M25.4490042,275.986388 C26.1291867,275.875911 26.6057422,275.11909 26.5141956,274.298255 C26.4217935,273.47742 25.7955123,272.902318 25.1153298,273.013828 C24.4351473,273.125338 23.9577362,273.880094 24.0501384,274.701962 C24.1425405,275.522797 24.7688217,276.096866 25.4490042,275.986388" id="Fill-1003"></path>
                    <path d="M25.3933301,266.994013 C26.0770836,266.9197 26.5819829,266.191013 26.5203681,265.366339 C26.4587533,264.540632 25.8545856,263.932705 25.1708321,264.005987 C24.4862229,264.081332 23.9821793,264.810019 24.0437941,265.634693 C24.105409,266.459368 24.7095766,267.067295 25.3933301,266.994013" id="Fill-1005"></path>
                    <path d="M23.6802545,256.998462 C24.3665756,256.961284 24.897148,256.260075 24.8663406,255.431842 C24.8355332,254.604642 24.2544708,253.964363 23.5690055,254.00154 C22.8826843,254.038718 22.3521119,254.738895 22.3820636,255.567127 C22.4137268,256.394327 22.9939334,257.035639 23.6802545,256.998462" id="Fill-1007"></path>
                    <path d="M23.6242363,247 C24.3113903,247 24.8676171,246.328975 24.8676171,245.5 C24.8676171,244.672058 24.3113903,244 23.6242363,244 C22.9379379,244 22.3808554,244.672058 22.3808554,245.5 C22.3808554,246.328975 22.9379379,247 23.6242363,247" id="Fill-1009"></path>
                    <path d="M23.5681853,237.998462 C24.2544886,238.035627 24.8346802,237.394535 24.8663426,236.567619 C24.8971492,235.739671 24.3657348,235.038702 23.6794315,235.001538 C22.9939839,234.964373 22.4129366,235.605465 22.3821299,236.432381 C22.3513233,237.260329 22.8827377,237.961298 23.5681853,237.998462" id="Fill-1011"></path>
                    <path d="M25.3933301,225.006141 C24.7095766,224.931806 24.105409,225.540943 24.0437941,226.364827 C23.9821793,227.190776 24.4862229,227.919676 25.1708321,227.994011 C25.8545856,228.067314 26.4587533,227.459209 26.5203681,226.634293 C26.5819829,225.809377 26.0770836,225.080477 25.3933301,225.006141" id="Fill-1013"></path>
                    <path d="M25.1153298,217.986408 C25.7955123,218.096886 26.4217935,217.521781 26.5141956,216.70094 C26.6057422,215.880099 26.1291867,215.125339 25.4490042,215.013828 C24.7688217,214.902318 24.1425405,215.477423 24.0501384,216.298264 C23.9577362,217.119105 24.4351473,217.874898 25.1153298,217.986408" id="Fill-1015"></path>
                    <path d="M25.7169113,207.232426 C25.5936994,208.047128 26.0420538,208.827754 26.7180079,208.975412 C27.3931064,209.124103 28.0399688,208.583034 28.1631807,207.768332 C28.2855369,206.952599 27.8371825,206.171973 27.1612284,206.024314 C26.48613,205.876656 25.8392675,206.416693 25.7169113,207.232426" id="Fill-1017"></path>
                    <path d="M27.3859326,197.166053 C27.2327771,197.97331 27.6520295,198.777471 28.3211222,198.962252 C28.9902149,199.146002 29.6567407,198.641208 29.8098962,197.832918 C29.962196,197.02566 29.5429436,196.221499 28.8738509,196.03775 C28.2047583,195.854001 27.5382324,196.358795 27.3859326,197.166053" id="Fill-1019"></path>
                    <path d="M29.9250545,189.945351 C30.5864447,190.166237 31.2709365,189.697628 31.454038,188.898721 C31.6362839,188.100847 31.2478349,187.275104 30.5864447,187.054218 C29.9250545,186.834364 29.2397071,187.302973 29.0574612,188.100847 C28.8743596,188.899754 29.2636643,189.725497 29.9250545,189.945351" id="Fill-1021"></path>
                    <path d="M32.3582668,180.926203 C33.0109729,181.182219 33.7124396,180.750708 33.9245905,179.963047 C34.1367414,179.175387 33.7791645,178.328883 33.1264583,178.0739 C32.4737521,177.817884 31.7722855,178.248362 31.5601346,179.036023 C31.3479837,179.823684 31.7055606,180.670187 32.3582668,180.926203" id="Fill-1023"></path>
                    <path d="M35.6660605,168.096118 C35.0235351,167.805019 34.3065759,168.19728 34.0653081,168.973544 C33.8240402,169.748776 34.1500085,170.612783 34.7925339,170.903882 C35.4350594,171.194981 36.1511629,170.80272 36.3932864,170.026456 C36.6336987,169.251224 36.308586,168.387217 35.6660605,168.096118" id="Fill-1025"></path>
                    <path d="M37.401665,159.910356 C37.1321369,160.672075 37.4247674,161.553523 38.0562333,161.878647 C38.6876992,162.204804 39.4175643,161.850779 39.687948,161.08906 C39.9574761,160.327341 39.6648456,159.446925 39.0333797,159.120769 C38.4019138,158.795644 37.6711931,159.149669 37.401665,159.910356" id="Fill-1027"></path>
                    <path d="M41.3212976,152.850813 C41.9398588,153.211024 42.6824745,152.896226 42.9802052,152.151033 C43.2787915,151.404808 43.0178493,150.507893 42.4001437,150.148715 C41.7815825,149.789536 41.0381112,150.103301 40.7403805,150.849526 C40.4426498,151.595751 40.7027364,152.491634 41.3212976,152.850813" id="Fill-1029"></path>
                    <path d="M44.0814622,142.78949 C43.7562582,143.518354 43.9821894,144.427887 44.58724,144.820194 C45.1914348,145.213533 45.9453946,144.939951 46.2714544,144.210053 C46.5958026,143.481188 46.3698714,142.571656 45.7648208,142.179349 C45.160626,141.787042 44.4066662,142.059592 44.0814622,142.78949" id="Fill-1031"></path>
                    <path d="M48.6833094,136.787189 C49.2720015,137.212543 50.0361033,136.98025 50.3877784,136.268918 C50.7403091,135.558618 50.5477863,134.636674 49.9582385,134.212352 C49.3686907,133.788031 48.6054446,134.019291 48.2537695,134.730623 C47.9012387,135.441956 48.0937616,136.362868 48.6833094,136.787189" id="Fill-1033"></path>
                    <path d="M52.7804674,127.751839 C53.352957,128.20818 54.1248337,128.017178 54.5030704,127.326472 C54.8813072,126.634734 54.7229954,125.704501 54.1505059,125.248161 C53.5771606,124.79182 52.8061396,124.982822 52.4279029,125.673528 C52.0496662,126.365266 52.2071222,127.295499 52.7804674,127.751839" id="Fill-1035"></path>
                    <path d="M57.7080213,119.713166 C58.263455,120.200452 59.0414046,120.051788 59.4445005,119.38177 C59.8484523,118.711752 59.7252128,117.773314 59.1697791,117.286028 C58.6143454,116.799774 57.8363958,116.948438 57.4332999,117.618456 C57.0293481,118.288474 57.1525876,119.226912 57.7080213,119.713166" id="Fill-1037"></path>
                    <path d="M64.3845728,111.435424 C64.8126291,110.788061 64.7244495,109.843345 64.1876669,109.327107 C63.6508842,108.810869 62.8683973,108.917214 62.4403409,109.564576 C62.0122846,110.212972 62.1004642,111.156655 62.6363907,111.672893 C63.1740295,112.189131 63.9565165,112.082786 64.3845728,111.435424" id="Fill-1039"></path>
                    <path d="M69.3222429,104.486552 C69.7741297,103.863034 69.7210673,102.916401 69.2041361,102.370306 C68.6872049,101.825243 67.901538,101.889247 67.4496512,102.513798 C66.9977644,103.137316 67.0508268,104.083949 67.567758,104.630044 C68.0846892,105.175107 68.8703561,105.110071 69.3222429,104.486552" id="Fill-1041"></path>
                    <path d="M72.5003625,97.5843104 C72.9967552,98.1563081 73.7841369,98.1356584 74.2582776,97.536816 C74.7324183,96.9379735 74.7153013,95.9880856 74.2189085,95.4160878 C73.7225158,94.8430576 72.9351341,94.8647398 72.4609934,95.4635822 C71.9859968,96.0624246 72.0039697,97.0112801 72.5003625,97.5843104" id="Fill-1043"></path>
                    <path d="M78.3028064,87.4160878 C77.8064136,87.9880856 77.7884408,88.9379735 78.2634374,89.536816 C78.7375781,90.1356584 79.5249597,90.1563081 80.0213525,89.5843104 C80.5177453,89.0112801 80.5348623,88.0624246 80.0607216,87.4635822 C79.5865809,86.8647398 78.7991992,86.8430576 78.3028064,87.4160878" id="Fill-1045"></path>
                    <path d="M84.97509,81.3704637 C84.4581588,81.9156147 84.4050963,82.863434 84.8569832,83.4870536 C85.30887,84.1106733 86.0945369,84.1746872 86.6114681,83.6295363 C87.1283992,83.0843853 87.1814617,82.1375985 86.7295749,81.5129464 C86.277688,80.8893267 85.4920211,80.8253128 84.97509,81.3704637" id="Fill-1047"></path>
                    <path d="M92.3711149,77.6728932 C92.9077271,77.156655 92.9958787,76.2119391 92.5679583,75.5645764 C92.139182,74.9172137 91.3569434,74.8108687 90.8203312,75.3271068 C90.2837189,75.8443775 90.1955673,76.7880609 90.6234878,77.4354236 C91.0514082,78.0827863 91.8345026,78.1891313 92.3711149,77.6728932" id="Fill-1049"></path>
                    <path d="M98.1290459,71.713166 C98.6844796,71.2258801 98.8077191,70.2884741 98.4037673,69.6184559 C98.0006714,68.9484377 97.2227218,68.7997742 96.6672881,69.2860277 C96.1118544,69.7733137 95.9886149,70.7107197 96.3925667,71.3817703 C96.7956626,72.0517885 97.5736122,72.200452 98.1290459,71.713166" id="Fill-1051"></path>
                    <path d="M36.0963975,347.109006 C35.6885625,347.360224 35.5260595,347.961627 35.7343157,348.453597 C35.9417831,348.946519 36.4411247,349.141594 36.8489597,348.890375 C37.2567948,348.640108 37.4185089,348.038705 37.2110416,347.546735 C37.0027853,347.053814 36.5042326,346.858738 36.0963975,347.109006" id="Fill-1295"></path>
                    <path d="M33.9093625,339.581894 C33.7176798,339.080548 33.2254577,338.860793 32.8097509,339.091964 C32.3940441,339.324086 32.2126161,339.917711 32.4042987,340.418106 C32.5951926,340.919452 33.0874147,341.139207 33.5031215,340.908036 C33.9196171,340.675914 34.1010451,340.082289 33.9093625,339.581894" id="Fill-1297"></path>
                    <path d="M30.6068383,331.617408 C30.4317379,331.107285 29.9474511,330.864596 29.5238973,331.07683 C29.1011323,331.28716 28.9000034,331.872469 29.0758925,332.382592 C29.250993,332.892715 29.7360685,333.135404 30.1580448,332.92317 C30.5808099,332.711888 30.7819387,332.127531 30.6068383,331.617408" id="Fill-1299"></path>
                    <path d="M28.470058,324.937797 C28.8992099,324.747478 29.119308,324.171763 28.9607427,323.654095 C28.8021774,323.135476 28.3256926,322.870932 27.8965407,323.062203 C27.4673889,323.252522 27.2472907,323.828237 27.4058561,324.345905 C27.5644214,324.864524 28.0409062,325.129068 28.470058,324.937797" id="Fill-1301"></path>
                    <path d="M25.4403509,315.049418 C25.0049063,315.220685 24.7666739,315.783965 24.9086667,316.309185 C25.0498707,316.834406 25.5176581,317.121755 25.9523139,316.950487 C26.3877585,316.780171 26.6259909,316.216891 26.4847869,315.691671 C26.3435829,315.16645 25.8757955,314.87815 25.4403509,315.049418" id="Fill-1303"></path>
                    <path d="M22.9847691,306.037599 C22.5445574,306.187026 22.2881617,306.740001 22.4120206,307.271085 C22.5366683,307.80217 22.994236,308.112445 23.4344477,307.962066 C23.8754483,307.812639 24.131844,307.259664 24.0071963,306.72858 C23.8833374,306.197495 23.4257697,305.888172 22.9847691,306.037599" id="Fill-1305"></path>
                    <path d="M22.3578712,297.76652 C22.2513598,297.229781 21.8032229,296.898602 21.3582419,297.028028 C20.9132608,297.155551 20.6394871,297.696097 20.7459985,298.232836 C20.8525099,298.770526 21.3006468,299.100754 21.7456278,298.972279 C22.1906088,298.842853 22.4643826,298.302307 22.3578712,297.76652" id="Fill-1307"></path>
                    <path d="M20.7069646,289.804719 C20.6178271,289.263066 20.180817,288.911801 19.7327632,289.01937 C19.2839207,289.125987 18.9920547,289.653361 19.0811922,290.194062 C19.1703296,290.736667 19.6065509,291.088884 20.0553935,290.980363 C20.5050248,290.872794 20.796102,290.34542 20.7069646,289.804719" id="Fill-1309"></path>
                    <path d="M19.0547994,280.84343 C18.983004,280.298053 18.5585432,279.925903 18.1064689,280.012516 C17.6543946,280.099129 17.3459111,280.611193 17.4177065,281.15657 C17.4887129,281.701947 17.9139626,282.074097 18.3652479,281.987484 C18.8181112,281.900871 19.1265948,281.388807 19.0547994,280.84343" id="Fill-1311"></path>
                    <path d="M17.5047508,272.993191 C17.9591088,272.928475 18.284101,272.430734 18.2304615,271.882553 C18.176822,271.334373 17.7642712,270.942271 17.3099132,271.006987 C16.8555552,271.071703 16.5305629,271.569443 16.5842024,272.117624 C16.6378419,272.665805 17.0503927,273.056955 17.5047508,272.993191" id="Fill-1313"></path>
                    <path d="M16.6434374,264.996936 C17.1001848,264.953159 17.4409704,264.471615 17.4046831,263.92155 C17.3683957,263.371485 16.9700236,262.959412 16.5132763,263.003189 C16.0573177,263.046966 15.7165321,263.527559 15.7520306,264.078575 C15.788318,264.62864 16.1874789,265.039761 16.6434374,264.996936" id="Fill-1315"></path>
                    <path d="M16.5777486,253.961015 C16.5596052,253.409058 16.17465,252.978912 15.7171213,253.0008 C15.2595926,253.022688 14.9038246,253.487093 14.9211791,254.03905 C14.9393225,254.591007 15.3250665,255.020202 15.7825952,254.999265 C16.2393351,254.976426 16.5958919,254.51202 16.5777486,253.961015" id="Fill-1317"></path>
                    <path d="M15.7490963,246 C16.2075474,246 16.5784114,245.551642 16.5784114,244.999524 C16.5784114,244.447406 16.2075474,244 15.7490963,244 C15.2914343,244 14.9205703,244.447406 14.9205703,244.999524 C14.9205703,245.551642 15.2914343,246 15.7490963,246" id="Fill-1319"></path>
                    <path d="M15.7822423,236.0008 C15.3245114,235.978902 14.9393862,236.409239 14.9212348,236.960489 C14.9030834,237.512691 15.2590086,237.978254 15.7167394,237.9992 C16.1744702,238.021098 16.5595955,237.590761 16.5777469,237.039511 C16.5958983,236.487309 16.2399731,236.021746 15.7822423,236.0008" id="Fill-1321"></path>
                    <path d="M16.6434374,227.003064 C16.1874789,226.960236 15.788318,227.371383 15.7520306,227.921482 C15.7165321,228.471582 16.0573177,228.953156 16.5132763,228.996936 C16.9700236,229.039764 17.3683957,228.628617 17.4046831,228.078518 C17.4409704,227.527467 17.1001848,227.045892 16.6434374,227.003064" id="Fill-1323"></path>
                    <path d="M17.309562,219.992997 C17.7640923,220.057731 18.1767995,219.66647 18.2304593,219.118134 C18.2841191,218.568846 17.9590037,218.071917 17.5044734,218.007183 C17.0499431,217.941496 16.6372359,218.333709 16.5843652,218.882045 C16.5299163,219.431333 16.8550317,219.928263 17.309562,219.992997" id="Fill-1325"></path>
                    <path d="M17.4177064,210.84343 C17.3459111,211.388807 17.6543945,211.900871 18.1064686,211.987484 C18.5585427,212.074097 18.9830033,211.701947 19.0547986,211.15657 C19.126594,210.611193 18.8181106,210.098177 18.3660365,210.012516 C17.9139623,209.925903 17.4887129,210.298053 17.4177064,210.84343" id="Fill-1327"></path>
                    <path d="M19.732541,201.980636 C20.1813828,202.088169 20.6176035,201.737024 20.7067408,201.195556 C20.7966669,200.653136 20.5048014,200.126894 20.0559595,200.019362 C19.6071177,199.91183 19.1708971,200.262975 19.0809709,200.805394 C18.9926224,201.346862 19.2836991,201.873104 19.732541,201.980636" id="Fill-1329"></path>
                    <path d="M21.3583983,193.972276 C21.8033123,194.100751 22.2505929,193.770524 22.3578771,193.233785 C22.4643725,192.696096 22.1906399,192.156502 21.7449371,192.028028 C21.3000231,191.898602 20.8527426,192.229781 20.7462472,192.766519 C20.638963,193.303257 20.9134844,193.84285 21.3583983,193.972276" id="Fill-1331"></path>
                    <path d="M22.4123504,183.728598 C22.2877235,184.260598 22.5440763,184.812583 22.985003,184.962 C23.4251409,185.112368 23.882632,184.803066 24.0072589,184.271066 C24.1318858,183.740019 23.8747442,183.188033 23.4346063,183.037665 C22.9944683,182.888248 22.5361885,183.196599 22.4123504,183.728598" id="Fill-1333"></path>
                    <path d="M25.4403509,176.950945 C25.8757955,177.121257 26.3435829,176.833915 26.4847869,176.308706 C26.6259909,175.783498 26.3877585,175.220232 25.9523139,175.048968 C25.5176581,174.878656 25.0498707,175.16695 24.9086667,175.691206 C24.7666739,176.216414 25.0049063,176.780633 25.4403509,176.950945" id="Fill-1335"></path>
                    <path d="M27.8965407,167.937916 C28.3256926,168.129153 28.8021774,167.863705 28.9607427,167.346128 C29.119308,166.827601 28.8992099,166.252939 28.470058,166.061702 C28.0409062,165.871416 27.5644214,166.135913 27.4058561,166.653489 C27.2472907,167.172017 27.4673889,167.746679 27.8965407,167.937916" id="Fill-1337"></path>
                    <path d="M29.5241316,159.923714 C29.9468102,160.134995 30.430998,159.892307 30.6068512,159.382186 C30.7819159,158.873018 30.5808281,158.287711 30.1581495,158.07643 C29.7354709,157.865149 29.2504945,158.106885 29.0754298,158.617006 C28.9003652,159.127126 29.101453,159.712432 29.5241316,159.923714" id="Fill-1339"></path>
                    <path d="M32.8097509,151.907837 C33.2254577,152.139079 33.7176798,151.920208 33.9093625,151.418709 C34.1010451,150.916258 33.9196171,150.322453 33.5031215,150.092163 C33.0882035,149.860921 32.5959814,150.079792 32.4042987,150.581291 C32.2126161,151.08279 32.3940441,151.676596 32.8097509,151.907837" id="Fill-1341"></path>
                    <path d="M36.0963975,143.890566 C36.5042326,144.141751 37.0027853,143.94575 37.2110416,143.453846 C37.4185089,142.961942 37.2567948,142.360619 36.8489597,142.109434 C36.4411247,141.858249 35.9417831,142.05425 35.7343157,142.546154 C35.5260595,143.038058 35.6885625,143.640332 36.0963975,143.890566" id="Fill-1343"></path>
                    <path d="M39.0652643,135.51147 C38.8412489,135.993073 38.9840193,136.602215 39.3831454,136.872521 C39.7822715,137.141876 40.2878838,136.970555 40.5111104,136.488952 C40.7351258,136.00735 40.5923554,135.397256 40.1932294,135.127901 C39.7941033,134.857595 39.288491,135.029867 39.0652643,135.51147" id="Fill-1345"></path>
                    <path d="M42.3971516,126.47766 C42.1581297,126.948742 42.2804017,127.56448 42.670883,127.851887 C43.0613643,128.141198 43.5709622,127.993688 43.810773,127.522606 C44.0497949,127.051524 43.9267341,126.435786 43.5370416,126.147427 C43.1465603,125.859068 42.6361735,126.006578 42.3971516,126.47766" id="Fill-1347"></path>
                    <path d="M46.7878609,120.831651 C47.1681207,121.13817 47.683286,121.01442 47.9373185,120.555594 C48.19214,120.096768 48.0895802,119.475164 47.7085315,119.168646 C47.3282716,118.862127 46.8138952,118.984925 46.5590738,119.443751 C46.3050413,119.903528 46.407601,120.524181 46.7878609,120.831651" id="Fill-1349"></path>
                    <path d="M51.735068,113.808957 C52.1051119,114.133503 52.6234891,114.034521 52.8925402,113.588151 C53.1615914,113.140829 53.0795347,112.51553 52.7094908,112.190984 C52.3394468,111.866437 51.8202806,111.965419 51.5520185,112.412741 C51.2821783,112.859111 51.364235,113.48441 51.735068,113.808957" id="Fill-1351"></path>
                    <path d="M55.853456,106.785313 C56.2132011,107.127043 56.7338849,107.052796 57.0178942,106.619683 C57.3011146,106.185619 57.2387903,105.556417 56.8798341,105.214687 C56.520089,104.872957 55.9994052,104.947204 55.7161848,105.380317 C55.4321755,105.814381 55.4937109,106.443583 55.853456,106.785313" id="Fill-1353"></path>
                    <path d="M60.7100196,98.3502966 C60.4125572,98.7701049 60.4535865,99.4012454 60.8015465,99.7601292 C61.1502956,100.119013 61.6734191,100.069512 61.9708815,99.6497034 C62.2675549,99.2298951 62.2265256,98.5987546 61.8785656,98.2398708 C61.5306056,97.880987 61.006693,97.9304882 60.7100196,98.3502966" id="Fill-1355"></path>
                    <path d="M64.8760602,91.3212123 C64.5652405,91.7267117 64.5857515,92.3597095 64.9226043,92.7337969 C65.2578793,93.1088362 65.7824861,93.0850393 66.0933057,92.6785881 C66.4041254,92.2730887 66.3836145,91.6400909 66.0475506,91.2650516 C65.7114867,90.8909642 65.1868799,90.915713 64.8760602,91.3212123" id="Fill-1357"></path>
                    <path d="M71.0439953,85.7072822 C71.3682269,85.31604 71.3682269,84.6830081 71.0439953,84.2927178 C70.7205526,83.9024274 70.1959443,83.9024274 69.8725016,84.2927178 C69.54827,84.6830081 69.54827,85.31604 69.8725016,85.7072822 C70.1959443,86.0975726 70.7205526,86.0975726 71.0439953,85.7072822" id="Fill-1359"></path>
                    <path d="M76.8234682,80.7341846 C77.159595,80.3592154 77.1801098,79.7263359 76.8692319,79.3218641 C76.5591431,78.9154889 76.0344381,78.8907447 75.6983113,79.2657139 C75.3613955,79.6406831 75.3416697,80.2735625 75.6517586,80.6789861 C75.9626364,81.0844096 76.4873414,81.1091537 76.8234682,80.7341846" id="Fill-1361"></path>
                    <path d="M82.6015799,74.7605494 C82.9495399,74.4016919 82.9905692,73.7705977 82.6938958,73.3508201 C82.3964334,72.9310426 81.8733098,72.8805931 81.5245608,73.2394506 C81.1766007,73.5983081 81.1355714,74.2294023 81.4330339,74.6491799 C81.7304963,75.0689574 82.2536198,75.1194069 82.6015799,74.7605494" id="Fill-1363"></path>
                    <path d="M28.1413479,348.281213 C28.0410063,348.032509 27.7929015,347.929711 27.5867201,348.050747 C27.3819133,348.171783 27.2960044,348.471056 27.396346,348.718931 C27.4966876,348.966806 27.7447925,349.070432 27.9502866,348.949397 C28.1557806,348.828361 28.2416895,348.529087 28.1413479,348.281213" id="Fill-1643"></path>
                    <path d="M25.660706,341.296933 C25.5679258,341.044056 25.3225737,340.931298 25.1136464,341.043227 C24.904719,341.155156 24.8105643,341.451146 24.9033445,341.703193 C24.996812,341.955241 25.2414769,342.068828 25.4504042,341.956899 C25.6600188,341.844141 25.7534863,341.54898 25.660706,341.296933" id="Fill-1645"></path>
                    <path d="M22.6401554,333.03666 C22.4277546,333.140269 22.3253348,333.432032 22.4112574,333.687325 C22.4971801,333.943447 22.7384509,334.066949 22.9508517,333.96334 C23.1625651,333.859731 23.2649849,333.568796 23.1797496,333.312675 C23.093827,333.056553 22.8525562,332.933051 22.6401554,333.03666" id="Fill-1647"></path>
                    <path d="M19.3377286,326.029951 C19.122638,326.124499 19.0120004,326.411461 19.0903401,326.671053 C19.1686798,326.930646 19.4064476,327.064174 19.6215382,326.969626 C19.8366288,326.875907 19.9472664,326.588946 19.8689267,326.328524 C19.790587,326.069761 19.5528192,325.936232 19.3377286,326.029951" id="Fill-1649"></path>
                    <path d="M17.69377,317.024652 C17.4758913,317.110852 17.3569858,317.391832 17.4277792,317.654577 C17.4985726,317.917323 17.7322596,318.060714 17.9501384,317.975342 C18.1673298,317.889971 18.2862352,317.608162 18.2161291,317.346245 C18.1453357,317.082671 17.9109614,316.93928 17.69377,317.024652" id="Fill-1651"></path>
                    <path d="M15.2209661,310.019577 C15.0010862,310.095853 14.8739681,310.372767 14.9364965,310.638073 C14.999712,310.902551 15.2292116,311.056761 15.4497786,310.980485 C15.6689714,310.904209 15.7960894,310.627295 15.7335611,310.361989 C15.6703456,310.096682 15.440846,309.943301 15.2209661,310.019577" id="Fill-1653"></path>
                    <path d="M14.0791403,302.379189 C14.02347,302.111302 13.7987269,301.947916 13.5767329,302.015095 C13.3547389,302.082274 13.2200305,302.353478 13.2750136,302.621365 C13.3306839,302.888422 13.555427,303.052637 13.777421,302.984629 C13.9994149,302.91828 14.1348106,302.647075 14.0791403,302.379189" id="Fill-1655"></path>
                    <path d="M11.9331889,294.010965 C11.7090774,294.068206 11.5660861,294.33367 11.6142082,294.604112 C11.6616428,294.873724 11.8816295,295.046275 12.105741,294.989035 C12.329165,294.931794 12.4721564,294.66633 12.4247218,294.395888 C12.3772871,294.126276 12.1573004,293.953725 11.9331889,294.010965" id="Fill-1657"></path>
                    <path d="M11.1183685,286.007723 C10.892992,286.055831 10.742512,286.315448 10.7823651,286.586677 C10.8222183,286.858736 11.0372879,287.040385 11.2619773,286.992277 C11.4880409,286.944999 11.6378338,286.685382 11.5986678,286.413323 C11.5588146,286.141264 11.343745,285.959615 11.1183685,286.007723" id="Fill-1659"></path>
                    <path d="M9.94302114,277.430803 C9.91140264,277.157333 9.70107089,276.966733 9.47492988,277.004853 C9.24810152,277.043802 9.09000902,277.296554 9.12231488,277.570025 C9.15393338,277.842666 9.36357778,278.033267 9.59040614,277.995147 C9.81654714,277.956198 9.97463964,277.703445 9.94302114,277.430803" id="Fill-1661"></path>
                    <path d="M9.11580416,269.448084 C9.09174296,269.173531 8.88756647,268.97446 8.66001625,269.002662 C8.43246603,269.031693 8.26747494,269.278044 8.29153614,269.552596 C8.31490988,269.827148 8.51908636,270.026219 8.74663658,269.997188 C8.9741868,269.968986 9.13986536,269.722636 9.11580416,269.448084" id="Fill-1663"></path>
                    <path d="M8.67449688,261.001213 C8.44631361,261.020283 8.27380155,261.259908 8.29029673,261.535187 C8.30610461,261.810466 8.50404672,262.018583 8.73222999,261.998684 C8.96110057,261.979613 9.13292532,261.740817 9.11711744,261.465538 C9.10130956,261.19026 8.90336745,260.982142 8.67449688,261.001213" id="Fill-1665"></path>
                    <path d="M8.28893226,253.482972 C8.2806829,253.206792 8.08888517,252.991156 7.85996531,253.000279 C7.63173289,253.010232 7.45230922,253.241626 7.46055858,253.517805 C7.46880795,253.793985 7.66060567,254.009621 7.88883809,253.999669 C8.11775795,253.990546 8.29718163,253.759152 8.28893226,253.482972" id="Fill-1667"></path>
                    <path d="M7.87474542,246 C8.10362647,246 8.2892057,245.77529 8.2892057,245.499171 C8.2892057,245.223051 8.10362647,245 7.87474542,245 C7.64586436,245 7.46028513,245.223051 7.46028513,245.499171 C7.46028513,245.77529 7.64586436,246 7.87474542,246" id="Fill-1669"></path>
                    <path d="M7.86031953,237.99967 C8.08907291,238.009622 8.28073115,237.793168 8.28897451,237.517002 C8.29653093,237.241665 8.11792469,237.010283 7.88917131,237.000331 C7.66041792,236.990379 7.46875969,237.206004 7.46051632,237.48217 C7.4529599,237.758336 7.63156615,237.989718 7.86031953,237.99967" id="Fill-1671"></path>
                    <path d="M8.7328351,229.001213 C8.50396453,228.98214 8.30602241,229.190278 8.29021453,229.465585 C8.27440666,229.740891 8.44623141,229.97971 8.67510198,229.998783 C8.90328525,230.017855 9.10122737,229.810546 9.11703525,229.53524 C9.13353042,229.259934 8.96101837,229.020285 8.7328351,229.001213" id="Fill-1673"></path>
                    <path d="M8.6603792,220.997199 C8.88780663,221.026226 9.09187293,220.826353 9.11592115,220.551839 C9.13928228,220.277325 8.97438021,220.031009 8.74695278,220.002811 C8.51952535,219.973784 8.31545904,220.172828 8.29141083,220.447341 C8.2680497,220.721855 8.43295177,220.968171 8.6603792,220.997199" id="Fill-1675"></path>
                    <path d="M9.47485977,212.994947 C9.70164357,213.03392 9.91124677,212.843199 9.94285906,212.569556 C9.97515857,212.295913 9.81709714,212.04383 9.59031334,212.004857 C9.36352955,211.966712 9.15392634,212.157433 9.12231406,212.430247 C9.09001455,212.70389 9.24807598,212.956803 9.47485977,212.994947" id="Fill-1677"></path>
                    <path d="M11.2622763,204.007721 C11.0367611,203.959624 10.8215592,204.141233 10.7823691,204.413233 C10.7424914,204.685233 10.893064,204.944794 11.1185791,204.992063 C11.3440943,205.040989 11.5586086,204.85855 11.5984863,204.58738 C11.638364,204.31538 11.4877914,204.055819 11.2622763,204.007721" id="Fill-1679"></path>
                    <path d="M12.105741,196.010956 C11.8816295,195.953763 11.6616428,196.126172 11.6142082,196.395561 C11.5660861,196.665779 11.7090774,196.931023 11.9331889,196.989046 C12.1573004,197.046239 12.3772871,196.87383 12.4247218,196.603612 C12.4721564,196.334223 12.329165,196.06815 12.105741,196.010956" id="Fill-1681"></path>
                    <path d="M13.5768726,188.984909 C13.7988064,189.052069 14.0234885,188.888729 14.0791437,188.620917 C14.1347989,188.353105 13.99944,188.081977 13.7775062,188.014817 C13.5555725,187.948486 13.3308903,188.110997 13.2752351,188.379638 C13.2195799,188.64745 13.3549389,188.918578 13.5768726,188.984909" id="Fill-1683"></path>
                    <path d="M15.2209661,180.980429 C15.440846,181.0567 15.6703456,180.903328 15.7335611,180.637208 C15.7960894,180.372745 15.6689714,180.095847 15.4497786,180.019576 C15.2292116,179.943304 14.999712,180.096676 14.9364965,180.361968 C14.8739681,180.628088 15.0010862,180.904157 15.2209661,180.980429" id="Fill-1685"></path>
                    <path d="M17.4277713,172.345397 C17.3570055,172.608181 17.4758645,172.890031 17.6936581,172.975415 C17.9114518,173.060799 18.1450475,172.916558 18.2158133,172.654603 C18.286579,172.391819 18.16772,172.109969 17.9499264,172.024585 C17.7321327,171.939201 17.498537,172.083442 17.4277713,172.345397" id="Fill-1687"></path>
                    <path d="M19.0903401,164.329194 C19.0120004,164.58789 19.122638,164.875608 19.3377286,164.969302 C19.5528192,165.064655 19.7912742,164.930332 19.8689267,164.670806 C19.9472664,164.41211 19.8366288,164.124392 19.6215382,164.030698 C19.4064476,163.935345 19.1686798,164.069668 19.0903401,164.329194" id="Fill-1689"></path>
                    <path d="M22.6401554,157.963323 C22.8525562,158.06698 23.093827,157.943421 23.1797496,157.68718 C23.2649849,157.430939 23.1625651,157.13987 22.9508517,157.036213 C22.7384509,156.933385 22.4971801,157.056944 22.4112574,157.313185 C22.3253348,157.568596 22.4277546,157.859666 22.6401554,157.963323" id="Fill-1691"></path>
                    <path d="M25.1136773,150.956419 C25.3226309,151.069136 25.5680139,150.95559 25.6608058,150.703636 C25.7535977,150.450853 25.6594311,150.155802 25.4504775,150.043085 C25.2415239,149.931198 24.9968282,150.044743 24.903349,150.296697 C24.8105571,150.548651 24.9047237,150.844532 25.1136773,150.956419" id="Fill-1693"></path>
                    <path d="M27.5868901,142.949216 C27.792429,143.070294 28.0412755,142.967461 28.141639,142.719501 C28.241315,142.470712 28.1560748,142.172165 27.9505359,142.050259 C27.7443095,141.930011 27.4968379,142.032843 27.3964744,142.280803 C27.296111,142.528763 27.3813512,142.828139 27.5868901,142.949216" id="Fill-1695"></path>
                    <path d="M30.8898013,135.941087 C31.0919321,136.071258 31.3428767,135.978397 31.4501297,135.734638 C31.5580703,135.49088 31.4810681,135.188254 31.2789374,135.058913 C31.0768066,134.928742 30.825862,135.021603 30.7186089,135.265362 C30.6113559,135.50912 30.6876706,135.811746 30.8898013,135.941087" id="Fill-1697"></path>
                    <path d="M34.1930848,127.932892 C34.3910012,128.071351 34.6445816,127.988441 34.7593457,127.749662 C34.8734225,127.510883 34.8053887,127.204948 34.6074723,127.067318 C34.4088687,126.92886 34.1559755,127.01094 34.0412114,127.249719 C33.9271346,127.489327 33.9944812,127.794433 34.1930848,127.932892" id="Fill-1699"></path>
                    <path d="M37.4962278,120.92422 C37.690792,121.070228 37.9458566,120.998883 38.0675452,120.76494 C38.1885462,120.530997 38.1294207,120.22239 37.9355441,120.076383 C37.7416674,119.929547 37.4859153,120.000891 37.3642267,120.234834 C37.2432257,120.469607 37.3023512,120.778213 37.4962278,120.92422" id="Fill-1701"></path>
                    <path d="M41.3752688,114.779465 C41.5031255,114.550586 41.4529452,114.240438 41.2632224,114.085364 C41.0734997,113.931119 40.8164116,113.991656 40.6878676,114.220535 C40.560011,114.449414 40.6101913,114.760392 40.799914,114.914636 C40.9896368,115.068881 41.2467248,115.008344 41.3752688,114.779465" id="Fill-1703"></path>
                    <path d="M45.5113374,107.79384 C45.6460915,107.569951 45.6048402,107.258164 45.4198972,107.095637 C45.2349541,106.933109 44.9757588,106.982863 44.8410047,107.205923 C44.7062507,107.429812 44.7475019,107.742428 44.932445,107.904126 C45.1180756,108.066654 45.3772709,108.01773 45.5113374,107.79384" id="Fill-1705"></path>
                    <path d="M49.64745,100.807839 C49.788391,100.589704 49.7560777,100.275357 49.5759483,100.106156 C49.3958188,99.9361268 49.1352498,99.9742798 48.9943089,100.192415 C48.8533679,100.409721 48.8849937,100.724069 49.0658106,100.894098 C49.2459401,101.064128 49.506509,101.025145 49.64745,100.807839" id="Fill-1707"></path>
                    <path d="M54.6117131,94.821211 C54.7588347,94.6097209 54.7361477,94.2945592 54.5608392,94.1170734 C54.3855308,93.9395876 54.1242867,93.9669569 53.9771651,94.178447 C53.829356,94.3899371 53.8527305,94.7050988 54.0280389,94.8825846 C54.2033474,95.0608998 54.4645914,95.0327011 54.6117131,94.821211" id="Fill-1709"></path>
                    <path d="M58.7468509,87.8346103 C58.9001215,87.6289773 58.8863753,87.3130652 58.7159218,87.1281613 C58.5461557,86.9440865 58.2842896,86.9598406 58.131019,87.1654737 C57.9777483,87.3702776 57.9914946,87.6870189 58.1612607,87.8710936 C58.3317142,88.0568267 58.5935802,88.0394142 58.7468509,87.8346103" id="Fill-1711"></path>
                    <path d="M62.8816511,82.8469279 C63.0404342,82.6479135 63.03631,82.3319781 62.8713405,82.1395975 C62.7070583,81.9488753 62.4444819,81.9538507 62.2856987,82.1528651 C62.1262282,82.3510503 62.1310398,82.6678149 62.295322,82.8593663 C62.4602915,83.051747 62.7228679,83.0459424 62.8816511,82.8469279" id="Fill-1713"></path>
                    <path d="M67.8448657,76.8596978 C68.0098328,76.6681649 68.013957,76.3514309 67.8551762,76.1524357 C67.6963953,75.9542697 67.4338227,75.9484657 67.2695429,76.1399985 C67.1045758,76.3323605 67.0997643,76.6490946 67.2585451,76.8472606 C67.4180133,77.0462558 67.6798986,77.0512307 67.8448657,76.8596978" id="Fill-1715"></path>
                    <path d="M19.3034838,349.047771 C19.0956258,349.165196 19.0074129,349.463651 19.1047513,349.713179 C19.2020897,349.962706 19.4494914,350.070346 19.6563355,349.951698 C19.8631795,349.835496 19.9524064,349.537041 19.8540541,349.28629 C19.7567157,349.036763 19.5103279,348.930346 19.3034838,349.047771" id="Fill-2037"></path>
                    <path d="M17.6572027,343.041351 C17.4472743,343.151427 17.3509304,343.444962 17.4411894,343.698136 C17.5324627,343.95131 17.7758579,344.068724 17.9868005,343.958649 C18.1967289,343.848573 18.2930729,343.555038 18.2017997,343.301864 C18.1115406,343.04869 17.8671312,342.931276 17.6572027,343.041351" id="Fill-2039"></path>
                    <path d="M14.3533635,336.035155 C14.140229,336.136688 14.0367065,336.42661 14.1209454,336.683503 C14.2051843,336.940395 14.4457219,337.066395 14.6588564,336.964861 C14.871991,336.863327 14.9755135,336.572183 14.8912746,336.31529 C14.8070357,336.059621 14.5654832,335.933621 14.3533635,336.035155" id="Fill-2041"></path>
                    <path d="M11.8791184,328.029432 C11.6641621,328.122398 11.5516142,328.409856 11.6296879,328.667957 C11.7067478,328.928504 11.9440109,329.064282 12.1599812,328.970093 C12.3749376,328.875905 12.4864715,328.58967 12.4094117,328.330346 C12.3313379,328.071022 12.0940748,327.936467 11.8791184,328.029432" id="Fill-2043"></path>
                    <path d="M10.2333553,321.024235 C10.0162291,321.108692 9.89650537,321.391438 9.96752793,321.654601 C10.0385505,321.916539 10.2719104,322.060973 10.4890365,321.975292 C10.7071773,321.889611 10.8258864,321.608088 10.7558785,321.34615 C10.6848559,321.082988 10.451496,320.939778 10.2333553,321.024235" id="Fill-2045"></path>
                    <path d="M8.58859729,313.019534 C8.36860333,313.095395 8.2418787,313.374367 8.30574792,313.639879 C8.36961713,313.904168 8.59974905,314.057113 8.81974301,313.980028 C9.03872317,313.902944 9.1654478,313.625196 9.10157858,313.359684 C9.03770937,313.095395 8.80859124,312.943674 8.58859729,313.019534" id="Fill-2047"></path>
                    <path d="M6.11355002,306.015812 C5.89157134,306.085512 5.75878957,306.356973 5.81555124,306.623542 C5.87231291,306.891335 6.098346,307.052744 6.31931108,306.984267 C6.54128976,306.914568 6.67508513,306.643107 6.61832346,306.375315 C6.56054819,306.107522 6.3355287,305.947336 6.11355002,306.015812" id="Fill-2049"></path>
                    <path d="M5.29778745,299.012022 C5.07375675,299.073172 4.93386428,299.339787 4.98353624,299.608847 C5.03320821,299.877908 5.25521148,300.047906 5.47822847,299.987978 C5.70124546,299.928051 5.84215164,299.660213 5.79247968,299.391153 C5.741794,299.122092 5.52080444,298.952094 5.29778745,299.012022" id="Fill-2051"></path>
                    <path d="M3.65245894,291.009189 C3.42742685,291.060552 3.28044644,291.322256 3.32302007,291.593743 C3.36559371,291.864008 3.58353019,292.042554 3.80754862,291.991191 C4.0325807,291.938606 4.18057478,291.676902 4.13698748,291.405414 C4.09441385,291.13515 3.87749102,290.956604 3.65245894,291.009189" id="Fill-2053"></path>
                    <path d="M2.83636957,284.006128 C2.61039939,284.048915 2.45637487,284.305639 2.49184104,284.578255 C2.52832053,284.849649 2.74010424,285.03669 2.96607442,284.993903 C3.1920446,284.949893 3.34606912,284.693169 3.31060295,284.421776 C3.27412346,284.14916 3.06233975,283.963341 2.83636957,284.006128" id="Fill-2055"></path>
                    <path d="M2.02008469,276.003932 C1.79293105,276.038186 1.63270661,276.287749 1.66110082,276.561779 C1.68949502,276.837033 1.89636709,277.030322 2.12453481,276.996068 C2.35067437,276.960591 2.51191289,276.711028 2.48351868,276.436998 C2.4541104,276.162968 2.24723833,275.969679 2.02008469,276.003932" id="Fill-2057"></path>
                    <path d="M1.20485476,268.002206 C0.97674032,268.027917 0.809456395,268.272784 0.830747077,268.547035 C0.8530516,268.822511 1.05480615,269.024526 1.2829206,268.997591 C1.5100212,268.973104 1.67730512,268.728237 1.65601444,268.452761 C1.63472376,268.17851 1.43296921,267.976495 1.20485476,268.002206" id="Fill-2059"></path>
                    <path d="M1.65702732,261.4682 C1.64281815,261.193005 1.44591958,260.983858 1.2165429,261.000981 C0.988181166,261.019327 0.814626245,261.255383 0.829850361,261.5318 C0.844059536,261.806995 1.0409581,262.016142 1.26931984,261.999019 C1.49768158,261.981896 1.6712365,261.744617 1.65702732,261.4682" id="Fill-2061"></path>
                    <path d="M0.828717075,253.48464 C0.821618428,253.208157 0.629954943,252.992842 0.401784129,253.000182 C0.172599222,253.008746 -0.00689515239,253.239964 0.000203495177,253.515225 C0.00730214274,253.791708 0.197951534,254.00947 0.427136441,253.999683 C0.656321349,253.991119 0.835815723,253.761124 0.828717075,253.48464" id="Fill-2063"></path>
                    <path d="M0.82892057,245.499388 C0.82892057,245.222766 0.643250479,245 0.41395299,245 C0.185670091,245 0,245.222766 0,245.499388 C0,245.77601 0.185670091,246 0.41395299,246 C0.643250479,246 0.82892057,245.77601 0.82892057,245.499388" id="Fill-2065"></path>
                    <path d="M0.401784129,238.999755 C0.630969036,239.008318 0.821618428,238.791778 0.828717075,238.515292 C0.835815723,238.240029 0.656321349,238.008808 0.427136441,238.000244 C0.198965627,237.99168 0.00730214274,238.209444 0.000203495177,238.484707 C-0.00689515239,238.75997 0.172599222,238.991191 0.401784129,238.999755" id="Fill-2067"></path>
                    <path d="M1.21702098,230.999019 C1.44614916,231.016142 1.64182058,230.806995 1.6570282,230.5318 C1.67122199,230.256606 1.49785508,230.019327 1.26974074,230.000981 C1.04061255,229.983858 0.843927288,230.193005 0.829733507,230.4682 C0.815539725,230.744617 0.988906629,230.981896 1.21702098,230.999019" id="Fill-2069"></path>
                    <path d="M1.28191128,222.002203 C1.05379946,221.976519 0.852047237,222.178328 0.830756801,222.453523 C0.809466365,222.727494 0.975734532,222.970889 1.20384635,222.997797 C1.43195816,223.023481 1.63371039,222.821672 1.65601466,222.546477 C1.67730509,222.272506 1.51002309,222.027888 1.28191128,222.002203" id="Fill-2071"></path>
                    <path d="M2.12451816,215.003932 C1.89736452,214.969678 1.69049245,215.162971 1.66108417,215.437006 C1.63268996,215.711042 1.79392849,215.961833 2.02006805,215.996088 C2.24823576,216.030342 2.45510783,215.835826 2.48350203,215.563014 C2.51189624,215.288978 2.3516718,215.038187 2.12451816,215.003932" id="Fill-2073"></path>
                    <path d="M2.96607442,207.006135 C2.74010424,206.963297 2.52832053,207.149338 2.49184104,207.422279 C2.45637487,207.693996 2.61039939,207.949803 2.83636957,207.993865 C3.06233975,208.036703 3.27412346,207.850662 3.31060295,207.577721 C3.34606912,207.30478 3.1920446,207.048973 2.96607442,207.006135" id="Fill-2075"></path>
                    <path d="M3.80782619,199.008856 C3.58279411,198.957476 3.36587129,199.134858 3.32329765,199.406437 C3.27971035,199.676793 3.42770443,199.938585 3.65273651,199.991188 C3.87675494,200.042568 4.09367776,199.863962 4.13726506,199.593606 C4.1798387,199.322028 4.03285828,199.060235 3.80782619,199.008856" id="Fill-2077"></path>
                    <path d="M5.47834973,192.012089 C5.25541616,191.952118 5.03349592,192.121016 4.98384253,192.391496 C4.93317581,192.660753 5.0740293,192.928787 5.29797621,192.987533 C5.52090978,193.048728 5.74181668,192.878607 5.7924834,192.60935 C5.84213679,192.340093 5.70128331,192.07206 5.47834973,192.012089" id="Fill-2079"></path>
                    <path d="M6.31992055,184.016227 C6.09895622,183.946505 5.87292391,184.107966 5.81514883,184.375846 C5.75940095,184.643725 5.89218227,184.915274 6.11416019,184.983773 C6.33613811,185.053495 6.56115683,184.892034 6.61791831,184.624154 C6.67569338,184.356275 6.54189847,184.084726 6.31992055,184.016227" id="Fill-2081"></path>
                    <path d="M8.58859729,177.980037 C8.80859124,178.057088 9.03770937,177.904209 9.10157858,177.640034 C9.1654478,177.374636 9.03872317,177.097007 8.81974301,177.019956 C8.59974905,176.942905 8.36961713,177.095784 8.30574792,177.361182 C8.2418787,177.625358 8.36860333,177.902986 8.58859729,177.980037" id="Fill-2083"></path>
                    <path d="M10.4892518,170.024696 C10.2722886,169.939056 10.03809,170.083421 9.96712073,170.345236 C9.8971653,170.608274 10.0157854,170.890887 10.2337624,170.975304 C10.4507256,171.060944 10.6849243,170.916579 10.7558935,170.654764 C10.825849,170.391726 10.7072289,170.110337 10.4892518,170.024696" id="Fill-2085"></path>
                    <path d="M11.8791184,162.970554 C12.0940748,163.063563 12.3313379,162.928944 12.4094117,162.669497 C12.4864715,162.41005 12.3749376,162.122456 12.1599812,162.029446 C11.9440109,161.936437 11.7067478,162.071056 11.6296879,162.330503 C11.5516142,162.58995 11.6641621,162.876321 11.8791184,162.970554" id="Fill-2087"></path>
                    <path d="M14.6588564,155.035155 C14.4457219,154.933621 14.2051843,155.059621 14.1209454,155.31529 C14.0367065,155.572183 14.140229,155.863327 14.3533635,155.964861 C14.5664981,156.066395 14.8070357,155.940395 14.8912746,155.683503 C14.9755135,155.42661 14.871991,155.136688 14.6588564,155.035155" id="Fill-2089"></path>
                    <path d="M17.6572027,148.958444 C17.8671312,149.068535 18.1115406,148.952328 18.2017997,148.699118 C18.2930729,148.445907 18.1967289,148.149884 17.9868005,148.041016 C17.7758579,147.932148 17.5324627,148.047132 17.4411894,148.301565 C17.3509304,148.554775 17.4472743,148.849576 17.6572027,148.958444" id="Fill-2091"></path>
                    <path d="M19.3034838,141.952442 C19.5103279,142.069901 19.7567157,141.96223 19.8540541,141.71263 C19.9524064,141.463029 19.8631795,141.164487 19.6563355,141.047027 C19.4494914,140.930792 19.2020897,141.037239 19.1047513,141.28684 C19.0074129,141.537664 19.0956258,141.834983 19.3034838,141.952442" id="Fill-2093"></path>
                    <path d="M22.6072566,134.945795 C22.8110295,135.070544 23.0604232,134.972701 23.1648442,134.726872 C23.2682513,134.481043 23.1871477,134.180177 22.9833748,134.054205 C22.7796019,133.929456 22.5302081,134.027299 22.4257872,134.273128 C22.3223801,134.518957 22.4034837,134.819823 22.6072566,134.945795" id="Fill-2095"></path>
                    <path d="M25.0823721,127.938562 C25.2830911,128.070746 25.5344968,127.982623 25.6449937,127.74151 C25.7554906,127.499173 25.6825018,127.195639 25.4817827,127.062231 C25.2810637,126.928824 25.029658,127.016946 24.9191611,127.259283 C24.8086642,127.501621 24.881653,127.805154 25.0823721,127.938562" id="Fill-2097"></path>
                    <path d="M28.3865866,120.930114 C28.5833359,121.070826 28.837893,120.992517 28.9545228,120.753918 C29.0711525,120.516542 29.0052314,120.210645 28.808482,120.069933 C28.6117327,119.92922 28.3571756,120.00753 28.2405458,120.244906 C28.1249303,120.483505 28.1898372,120.789402 28.3865866,120.930114" id="Fill-2099"></path>
                    <path d="M31.6912908,114.922193 C31.8840247,115.070266 32.140665,115.000512 32.2634061,114.768001 C32.3861471,114.535489 32.328327,114.225881 32.1355931,114.077807 C31.9428592,113.929734 31.6862189,113.999488 31.5634778,114.231999 C31.4407368,114.464511 31.4985569,114.774119 31.6912908,114.922193" id="Fill-2101"></path>
                    <path d="M35.5723095,108.781124 C35.7001595,108.552399 35.6514547,108.241726 35.4627239,108.086389 C35.2729783,107.931052 35.0152491,107.990985 34.8863845,108.219709 C34.7575198,108.447211 34.8072392,108.757884 34.9959701,108.913221 C35.1857157,109.068558 35.4434449,109.009848 35.5723095,108.781124" id="Fill-2103"></path>
                    <path d="M39.7088885,102.793138 C39.8437644,102.569316 39.8021861,102.257434 39.6176192,102.095989 C39.4320381,101.93332 39.1734415,101.982243 39.0385656,102.206065 C38.9036898,102.428663 38.9452681,102.741769 39.129835,102.904437 C39.3154161,103.067106 39.5740127,103.01696 39.7088885,102.793138" id="Fill-2105"></path>
                    <path d="M43.0169575,95.8069854 C43.1569165,95.5891188 43.1244623,95.2745587 42.9439354,95.104427 C42.7623944,94.9355192 42.5017462,94.9759102 42.3617872,95.1937767 C42.2218282,95.4116433 42.2542824,95.7262034 42.4358234,95.8951112 C42.6163503,96.064019 42.8759843,96.0248519 43.0169575,95.8069854" id="Fill-2107"></path>
                    <path d="M47.1530701,89.8185693 C47.2991571,89.6055773 47.2748092,89.2909858 47.0982875,89.1147166 C46.9217658,88.9384474 46.6600267,88.9690497 46.5149543,89.1808175 C46.3688674,89.3938095 46.3932152,89.7096251 46.5697369,89.8858943 C46.7462586,90.0609394 47.0069832,90.0315612 47.1530701,89.8185693" id="Fill-2109"></path>
                    <path d="M52.1184724,83.8303565 C52.2696293,83.6235168 52.2533976,83.3077498 52.0819513,83.1253882 C51.9094904,82.9418027 51.6477557,82.9626091 51.4965989,83.1694487 C51.345442,83.3762884 51.3616736,83.6920554 51.53312,83.8756409 C51.7045664,84.0580025 51.9673155,84.0371961 52.1184724,83.8303565" id="Fill-2111"></path>
                    <path d="M55.4252615,78.8423578 C55.5824676,78.6404707 55.5733395,78.3247926 55.4070053,78.1351411 C55.2396569,77.9467131 54.9779849,77.9565016 54.8207789,78.1571651 C54.664587,78.3590523 54.6727009,78.6747303 54.8390351,78.8643818 C55.0063834,79.0540334 55.2690697,79.0430213 55.4252615,78.8423578" id="Fill-2113"></path>
                    <path d="M60.389488,72.8531661 C60.5517728,72.6573876 60.5517728,72.3416947 60.389488,72.1459162 C60.2272031,71.9513613 59.9655188,71.9513613 59.803234,72.1459162 C59.6419634,72.3416947 59.6419634,72.6573876 59.803234,72.8531661 C59.9655188,73.0489446 60.2272031,73.0489446 60.389488,72.8531661" id="Fill-2115"></path>
                </g>
            </g>
        </g>
    </g>
</svg>